<?xml version="1.0" standalone="no"?>
<!DOCTYPE svg PUBLIC "-//W3C//DTD SVG 20010904//EN"
 "http://www.w3.org/TR/2001/REC-SVG-20010904/DTD/svg10.dtd">
<svg version="1.0" xmlns="http://www.w3.org/2000/svg"
 width="1024.000000pt" height="1024.000000pt" viewBox="0 0 1024.000000 1024.000000"
 preserveAspectRatio="xMidYMid meet">

<g transform="translate(0.000000,1024.000000) scale(0.100000,-0.100000)"
fill="#000000" stroke="none">
<path d="M0 5120 l0 -5120 5120 0 5120 0 0 5120 0 5120 -5120 0 -5120 0 0
-5120z m6610 3186 c280 -49 581 -178 815 -351 107 -80 244 -203 307 -280 128
-152 274 -409 334 -590 38 -117 72 -300 85 -465 14 -180 4 -2518 -11 -2652 -6
-48 -19 -131 -29 -185 -11 -54 -18 -100 -15 -102 2 -2 7 10 10 28 4 17 11 34
16 38 7 4 9 -53 5 -163 -7 -240 -53 -460 -133 -643 -108 -244 -373 -544 -622
-706 -160 -103 -406 -203 -651 -265 -156 -39 -296 -48 -831 -56 -529 -8 -1718
6 -1542 18 63 4 119 11 125 17 7 5 82 12 167 15 85 3 209 12 275 20 66 9 148
16 182 16 71 0 284 24 393 44 164 30 306 59 325 67 11 5 49 15 84 24 35 9 73
22 85 30 11 8 64 21 116 30 52 9 97 20 100 24 3 5 22 11 43 15 20 4 37 11 37
16 0 6 8 10 18 10 9 0 24 5 32 10 10 6 -397 10 -1145 10 -638 0 -1216 3 -1285
6 -278 12 -517 69 -755 179 -170 79 -383 230 -497 354 -199 216 -362 481 -418
679 -13 46 -29 90 -36 97 -7 7 -20 50 -29 96 -9 46 -23 113 -32 149 -14 57
-17 235 -23 1420 -7 1286 -7 1363 11 1505 21 168 34 226 86 370 88 247 254
499 448 683 252 238 559 396 921 474 88 18 147 22 519 28 231 4 870 6 1420 5
872 -3 1012 -5 1095 -19z m-4456 -4891 l5 -70 -14 75 c-7 41 -13 91 -13 110
l0 35 8 -40 c5 -22 11 -71 14 -110z"/>
<path d="M3955 8130 c-687 -42 -1176 -334 -1473 -880 -77 -143 -143 -366 -167
-570 -13 -104 -15 -331 -16 -1375 0 -860 3 -1278 11 -1340 13 -102 59 -297 95
-399 29 -81 29 -79 13 -70 -7 4 -3 -3 10 -16 13 -12 21 -29 18 -37 -4 -9 -2
-11 6 -7 8 5 9 0 4 -17 -4 -13 -9 -32 -11 -43 -6 -26 -10 -29 -52 -33 -22 -2
-39 1 -44 9 -7 10 -9 9 -9 -2 0 -43 207 -355 309 -465 122 -132 312 -270 496
-360 274 -134 435 -173 785 -194 183 -11 1550 -2 1550 10 0 5 22 11 50 15 34
4 51 12 55 24 5 16 16 20 58 21 9 0 17 6 17 12 0 8 3 7 9 -2 7 -11 12 -10 22
8 14 22 39 29 39 11 0 -5 7 -10 16 -10 8 0 12 4 9 10 -3 6 1 10 9 10 9 0 16 5
16 10 0 6 7 10 16 10 8 0 22 7 30 15 13 12 52 15 227 15 405 1 575 22 800 100
252 87 473 224 649 403 250 256 414 635 448 1044 16 189 25 2445 11 2578 -36
322 -118 560 -280 810 -25 39 -102 126 -171 195 -224 224 -435 351 -745 447
-226 70 -143 66 -1475 68 -663 2 -1263 -1 -1335 -5z m2540 -131 c153 -19 357
-79 476 -139 95 -48 248 -147 335 -216 144 -114 287 -291 365 -448 27 -56 49
-108 49 -116 -1 -8 -18 18 -38 58 -92 180 -282 389 -475 523 -271 188 -530
285 -827 309 -173 14 -2387 15 -2510 1 -374 -44 -649 -145 -865 -319 -44 -35
-125 -105 -179 -155 -113 -104 -113 -90 1 35 96 106 123 128 246 212 253 171
483 241 887 269 117 8 2463 -5 2535 -14z m-1240 -134 c196 -52 343 -191 390
-371 16 -61 21 -207 10 -260 -13 -57 -47 -155 -52 -150 -3 3 -7 17 -9 32 -5
45 -24 81 -50 93 -36 16 -50 14 -67 -11 -15 -22 -15 -21 -5 17 5 22 8 80 6
130 -4 76 -9 99 -35 151 -57 111 -163 180 -291 191 -157 13 -309 -94 -359
-254 -19 -62 -19 -214 0 -273 14 -43 16 -45 53 -44 22 0 88 6 149 14 90 11
133 11 245 0 74 -7 152 -14 172 -15 20 -2 74 -15 120 -28 46 -14 124 -35 173
-47 95 -24 262 -95 434 -187 l104 -55 93 93 94 94 64 -64 c78 -77 85 -102 49
-183 -14 -32 -29 -58 -33 -58 -5 0 -13 -13 -18 -29 -10 -28 -7 -32 89 -121
100 -92 228 -236 305 -340 104 -141 225 -375 283 -546 86 -255 111 -403 111
-671 0 -200 -9 -291 -45 -433 -22 -88 -62 -207 -50 -150 14 69 16 99 8 114 -7
13 -14 1 -33 -51 -59 -171 -187 -434 -249 -513 -15 -19 -30 -43 -34 -52 -4
-11 -12 -15 -22 -12 -11 4 -14 2 -10 -9 9 -21 -22 -30 -34 -9 -9 15 -10 15
-11 -5 0 -16 -5 -20 -20 -16 -11 3 -20 14 -20 24 0 14 -7 19 -30 19 -18 0 -30
5 -30 13 0 15 -78 38 -86 26 -10 -17 -25 2 -18 23 4 14 2 18 -5 14 -6 -4 -11
-14 -11 -22 0 -8 -7 -14 -15 -14 -8 0 -15 -4 -15 -9 0 -8 -33 -48 -97 -117
-39 -43 -154 -140 -243 -205 -219 -162 -483 -285 -716 -334 -298 -63 -679 -26
-1004 98 -139 52 -370 182 -474 266 -98 78 -263 247 -329 334 -110 146 -225
352 -268 482 -12 39 -29 74 -36 78 -7 4 -14 20 -14 35 -2 27 -2 27 -6 2 -6
-31 -41 -70 -64 -70 -9 0 -19 -4 -21 -9 -1 -5 -20 -12 -40 -16 -31 -6 -38 -4
-38 9 0 9 -8 16 -20 16 -11 0 -20 5 -20 10 0 6 -5 10 -11 10 -8 0 -10 -17 -5
-57 l6 -58 -18 30 c-16 26 -70 249 -87 360 -12 80 -28 145 -37 145 -4 0 -9
-21 -9 -47 -2 -45 -2 -44 -12 22 -14 95 5 346 38 500 88 418 302 794 636 1122
61 59 115 116 121 126 8 15 1 28 -37 68 -42 44 -46 54 -41 82 4 17 19 49 34
71 15 21 37 54 50 72 12 19 29 34 36 34 8 0 47 -30 88 -67 125 -116 113 -109
145 -87 117 77 325 168 551 240 71 22 122 44 122 51 0 7 -9 13 -19 13 -11 0
-28 10 -38 23 -35 45 -43 42 -38 -15 3 -42 0 -34 -15 37 -25 119 -25 250 -1
348 27 104 43 131 125 213 72 72 159 123 242 143 63 15 205 12 269 -4z m-1464
-453 c48 -42 95 -91 105 -109 16 -29 16 -33 2 -55 -9 -14 -58 -62 -110 -109
-51 -46 -182 -174 -291 -283 -180 -182 -243 -236 -185 -160 12 16 18 26 14 22
-10 -8 -46 31 -88 95 -33 52 -48 61 -116 70 -43 5 -44 5 -37 -20 4 -16 2 -22
-5 -18 -15 9 -12 72 4 103 13 23 508 514 540 534 6 4 27 8 46 8 30 0 48 -12
121 -78z m2875 45 c56 -44 519 -517 528 -540 15 -41 -3 -77 -72 -150 -69 -71
-106 -97 -140 -97 -11 0 -94 72 -198 173 -99 94 -229 214 -290 264 -173 144
-178 159 -76 251 142 129 186 146 248 99z m-1446 -32 c16 -15 32 -40 35 -55 5
-24 -16 -134 -28 -146 -3 -3 -48 -1 -101 3 -80 7 -99 6 -105 -5 -6 -10 -12 0
-20 31 -15 62 -14 102 4 137 37 71 157 91 215 35z m-510 -319 c0 -2 -7 -6 -15
-10 -8 -3 -15 -1 -15 4 0 6 7 10 15 10 8 0 15 -2 15 -4z m-1445 -436 c3 -6 -1
-7 -9 -4 -18 7 -21 14 -7 14 6 0 13 -4 16 -10z m2368 -4197 c-13 -2 -35 -2
-50 0 -16 2 -5 4 22 4 28 0 40 -2 28 -4z"/>
<path d="M5325 6745 c33 -8 92 -16 130 -19 60 -5 54 -3 -40 14 -126 21 -179
24 -90 5z"/>
<path d="M5030 6709 c-78 -9 -194 -27 -279 -45 -27 -6 -33 -4 -29 7 2 8 15 20
29 26 39 20 -2 16 -90 -8 -82 -23 -110 -39 -70 -40 22 0 22 -1 4 -9 -18 -8
-18 -9 5 -10 19 -1 10 -7 -34 -25 -33 -14 -64 -25 -69 -25 -22 0 -220 -108
-322 -176 -132 -88 -237 -183 -358 -324 -152 -177 -232 -309 -314 -518 -59
-153 -91 -295 -105 -479 -18 -230 5 -406 81 -612 136 -373 405 -710 722 -908
221 -138 550 -256 791 -283 88 -10 353 2 438 20 216 47 346 93 498 178 379
212 646 499 800 862 143 337 178 625 116 940 -37 182 -157 472 -256 618 -112
166 -318 379 -468 484 -47 33 -84 64 -83 69 2 5 -6 9 -18 9 -11 0 -33 9 -48
19 -30 22 -159 84 -261 127 -100 41 -312 93 -429 104 -118 11 -130 11 -251 -1z
m185 -183 l29 -24 -2 -103 c-3 -107 -10 -131 -46 -160 -33 -27 -65 -32 -93
-14 -38 26 -53 74 -53 175 0 88 1 93 29 121 38 38 92 40 136 5z m-756 -221
c30 -15 165 -213 176 -258 9 -33 -19 -90 -50 -107 -30 -16 -71 -16 -91 1 -19
16 -156 196 -173 227 -34 63 10 152 75 152 19 0 48 -7 63 -15z m1482 -11 c10
-9 23 -31 29 -50 13 -39 6 -57 -50 -124 -20 -25 -56 -74 -81 -110 -24 -36 -50
-70 -59 -77 -25 -21 -60 -14 -91 16 -43 44 -41 100 9 177 21 32 50 81 66 107
47 82 124 109 177 61z m-962 -186 c71 -42 219 -169 258 -220 91 -120 133 -238
133 -374 0 -94 -13 -154 -55 -251 l-35 -78 -84 4 c-74 3 -90 0 -121 -19 -44
-27 -78 -72 -100 -130 -28 -75 -39 -93 -67 -110 -59 -36 -156 -200 -172 -292
-4 -21 -11 -38 -16 -38 -5 0 -11 -8 -13 -17 -3 -11 -5 -7 -6 10 0 15 -5 27
-11 27 -5 0 -10 11 -10 25 0 41 -39 59 -118 53 -37 -3 -73 -7 -81 -9 -9 -3
-20 11 -30 37 -9 23 -20 42 -26 43 -6 1 -9 37 -8 89 4 177 73 317 252 505 157
165 228 274 252 385 14 68 -4 192 -41 283 -17 39 -30 78 -30 85 0 23 87 18
129 -8z m1492 -317 c37 -37 38 -82 5 -126 -35 -46 -256 -185 -294 -185 -61 0
-108 102 -69 153 6 9 68 55 137 102 144 97 172 105 221 56z m-2504 -23 c26
-19 81 -54 121 -78 81 -46 109 -87 97 -141 -8 -35 -49 -69 -84 -69 -27 0 -197
91 -259 138 -62 48 -77 103 -41 161 19 32 22 33 69 29 34 -4 62 -15 97 -40z
m1689 -270 c206 -214 282 -495 211 -770 -14 -53 -40 -125 -57 -160 -38 -76
-96 -158 -112 -158 -6 0 -4 8 5 18 10 10 17 30 17 43 0 14 7 35 16 47 22 32 8
27 -36 -14 -22 -20 -50 -44 -62 -53 -13 -8 -29 -21 -36 -28 -20 -19 -32 -16
-103 21 -36 19 -96 41 -135 49 -38 8 -84 22 -101 31 -18 9 -42 16 -53 16 -24
0 -57 16 -78 37 -7 7 -22 13 -31 13 -21 0 -37 17 -43 45 -6 29 -48 -54 -58
-114 -7 -44 -8 -44 -9 -10 -1 50 23 124 55 166 27 35 27 35 85 29 71 -8 120 4
183 45 58 39 69 55 110 166 18 48 47 110 64 137 62 97 102 260 102 414 0 45 4
82 8 82 4 0 30 -24 58 -52z m-1661 -420 c54 -48 46 -134 -13 -156 -31 -12
-314 -13 -307 -2 3 5 -13 11 -34 15 -49 8 -70 46 -52 97 24 67 26 68 212 68
160 0 169 -1 194 -22z m2669 -9 c36 -43 35 -88 -4 -129 l-30 -33 -162 5 -161
5 -29 31 c-36 41 -38 89 -3 126 l24 26 170 0 169 0 26 -31z m-1434 11 c31 -17
60 -74 60 -120 0 -34 -6 -48 -34 -76 -28 -28 -42 -34 -76 -34 -23 0 -55 8 -71
17 -36 21 -73 94 -65 127 6 26 52 75 81 87 28 11 83 11 105 -1z m-445 -522 c0
-122 19 -192 77 -277 40 -59 45 -71 28 -71 -5 0 -10 5 -10 10 0 17 -64 99 -77
100 -6 0 -20 21 -30 48 -22 57 -23 176 -3 245 8 26 15 47 15 47 0 0 0 -46 0
-102z m-660 -40 c29 -13 55 -55 55 -88 0 -34 -28 -78 -60 -95 l-29 -15 4 69
c4 86 -5 90 -90 46 -161 -84 -195 -107 -201 -133 -10 -47 -14 -48 -10 -4 5 54
12 62 100 115 39 24 98 60 130 80 68 42 66 41 101 25z m2173 -45 c146 -93 181
-120 188 -148 7 -30 -12 -105 -26 -105 -5 0 -2 15 6 34 13 25 14 38 6 52 -10
17 -11 17 -12 -6 0 -15 -5 -31 -11 -37 -16 -16 -68 3 -96 34 -13 13 -23 20
-23 15 0 -5 -19 -3 -41 5 -39 13 -65 10 -44 -5 6 -4 16 -18 23 -31 16 -27 18
-28 -80 36 -81 54 -105 95 -88 148 13 41 44 65 81 65 14 0 66 -25 117 -57z
m-1260 -138 c-3 -3 -9 2 -12 12 -6 14 -5 15 5 6 7 -7 10 -15 7 -18z m47 -70
c22 -29 28 -41 14 -28 -13 12 -33 37 -43 55 -24 42 -18 36 29 -27z m-492 -226
c30 -33 39 -93 12 -82 -9 3 -22 17 -30 32 -7 15 -25 33 -39 40 -32 17 -36 14
-119 -89 -34 -41 -64 -77 -67 -80 -4 -3 -12 -14 -19 -25 -10 -16 -11 -16 -7
-2 9 29 144 214 169 232 29 21 65 12 100 -26z m1249 -23 c16 -23 42 -66 59
-96 25 -45 26 -50 7 -28 -13 15 -31 38 -41 53 -60 85 -167 106 -194 37 l-11
-27 -1 27 c-1 32 41 85 72 90 39 7 79 -14 109 -56z m-644 -136 c26 -16 32 -26
32 -56 0 -32 -1 -34 -16 -20 -20 21 -52 28 -100 24 -36 -3 -39 -5 -45 -41 -10
-62 -22 -56 -15 8 11 96 69 131 144 85z"/>
<path d="M4253 6519 c-35 -22 -46 -37 -15 -20 22 13 58 40 52 41 -3 0 -20 -10
-37 -21z"/>
<path d="M6292 6315 c15 -16 29 -27 31 -24 3 2 -10 15 -27 28 l-31 24 27 -28z"/>
<path d="M3902 6254 l-47 -47 53 43 c28 23 52 44 52 46 0 11 -15 0 -58 -42z"/>
<path d="M6391 6225 c30 -33 61 -67 69 -75 8 -9 35 -38 59 -65 24 -28 39 -41
33 -30 -5 11 -56 67 -112 125 -56 58 -78 78 -49 45z"/>
<path d="M3814 6168 c-44 -51 -57 -68 -52 -68 3 0 22 20 42 45 38 46 45 63 10
23z"/>
<path d="M6614 5952 c8 -16 22 -35 32 -43 10 -8 5 4 -11 29 -32 48 -42 55 -21
14z"/>
<path d="M6770 6922 c0 -5 7 -15 15 -22 8 -7 15 -8 15 -2 0 5 -7 15 -15 22 -8
7 -15 8 -15 2z"/>
<path d="M6863 6822 c15 -19 27 -37 27 -42 0 -11 104 -90 119 -90 6 0 -5 15
-26 32 -21 18 -40 35 -43 38 -3 3 -28 25 -55 50 -39 36 -43 38 -22 12z"/>
<path d="M8019 3452 c-20 -57 -32 -99 -28 -95 15 15 70 165 67 181 -2 9 -20
-29 -39 -86z"/>
<path d="M2284 3475 c4 -11 10 -32 13 -48 8 -39 23 -44 23 -7 0 18 -9 40 -21
53 -20 20 -21 21 -15 2z"/>
<path d="M7966 3323 c-6 -14 -5 -15 5 -6 7 7 10 15 7 18 -3 3 -9 -2 -12 -12z"/>
<path d="M7915 3212 c-11 -20 -34 -61 -53 -91 -18 -29 -31 -55 -29 -57 4 -5
79 111 95 149 18 43 9 43 -13 -1z"/>
<path d="M7750 2954 c0 -6 -23 -36 -52 -68 -29 -33 -43 -54 -33 -48 11 6 27
19 35 29 39 50 61 85 56 90 -3 4 -6 2 -6 -3z"/>
<path d="M6548 2293 c12 -2 30 -2 40 0 9 3 -1 5 -23 4 -22 0 -30 -2 -17 -4z"/>
<path d="M6468 2283 c12 -2 30 -2 40 0 9 3 -1 5 -23 4 -22 0 -30 -2 -17 -4z"/>
</g>
</svg>
