<?xml version="1.0" standalone="no"?>
<!DOCTYPE svg PUBLIC "-//W3C//DTD SVG 20010904//EN"
 "http://www.w3.org/TR/2001/REC-SVG-20010904/DTD/svg10.dtd">
<svg version="1.0" xmlns="http://www.w3.org/2000/svg"
 width="1024.000000pt" height="1024.000000pt" viewBox="0 0 1024.000000 1024.000000"
 preserveAspectRatio="xMidYMid meet">

<g transform="translate(0.000000,1024.000000) scale(0.100000,-0.100000)"
fill="#000000" stroke="none">
<path d="M9557 10223 c-12 -11 -8 -23 8 -23 8 0 15 7 15 15 0 16 -12 20 -23 8z"/>
<path d="M9770 10220 c-74 -3 -112 -7 -84 -8 84 -3 114 -12 114 -33 0 -12 7
-19 19 -19 12 0 20 -9 23 -25 4 -21 1 -25 -17 -25 -13 0 -25 -6 -28 -13 -4
-10 2 -13 19 -9 15 3 32 -2 44 -13 24 -22 26 -35 5 -35 -13 0 -11 -7 7 -40 13
-22 31 -40 41 -40 19 0 22 -11 6 -27 -8 -8 -8 -13 0 -17 6 -4 11 0 11 8 0 9 5
16 10 16 6 0 10 7 10 16 0 9 7 14 17 12 25 -5 28 -28 4 -28 -29 0 -27 -30 2
-31 l22 0 -22 -9 c-13 -5 -23 -12 -23 -15 0 -4 4 -4 8 -1 4 2 14 0 22 -5 12
-8 12 -12 3 -16 -25 -9 -14 -30 13 -25 19 3 22 7 12 13 -9 6 -7 9 10 9 12 0
22 -4 22 -10 0 -5 18 -10 39 -10 31 0 41 4 46 20 3 11 13 20 21 20 8 0 14 -9
14 -20 0 -17 7 -20 40 -20 l40 0 0 195 0 195 -167 -2 c-93 -2 -229 -5 -303 -8z
m147 -172 c-3 -7 -5 -2 -5 12 0 14 2 19 5 13 2 -7 2 -19 0 -25z m173 3 c0 -4
-11 -6 -25 -3 -14 2 -25 6 -25 8 0 2 11 4 25 4 14 0 25 -4 25 -9z m56 -27 c-3
-15 -8 -29 -11 -32 -3 -3 -3 5 -1 19 2 13 5 27 5 32 1 4 3 7 6 7 3 0 3 -12 1
-26z m64 -4 c0 -5 -7 -10 -15 -10 -8 0 -15 5 -15 10 0 6 7 10 15 10 8 0 15 -4
15 -10z m-150 -80 c0 -11 -7 -20 -15 -20 -8 0 -15 9 -15 20 0 11 7 20 15 20 8
0 15 -9 15 -20z m43 -28 c-5 -32 -22 -39 -31 -12 -3 7 0 10 7 6 10 -7 15 8 14
43 -1 7 2 9 7 5 4 -5 6 -24 3 -42z"/>
<path d="M8898 10213 c7 -3 16 -2 19 1 4 3 -2 6 -13 5 -11 0 -14 -3 -6 -6z"/>
<path d="M9023 10213 c15 -2 39 -2 55 0 15 2 2 4 -28 4 -30 0 -43 -2 -27 -4z"/>
<path d="M9213 10213 c15 -2 37 -2 50 0 12 2 0 4 -28 4 -27 0 -38 -2 -22 -4z"/>
<path d="M9765 10064 c9 -9 19 -13 23 -10 3 4 0 11 -8 16 -24 15 -33 11 -15
-6z"/>
<path d="M9642 9983 c16 -4 16 -6 1 -31 l-16 -27 25 25 c25 25 20 41 -12 39
-11 -1 -10 -3 2 -6z"/>
<path d="M9905 9880 c-4 -6 -3 -16 3 -22 6 -6 12 -6 17 2 4 6 3 16 -3 22 -6 6
-12 6 -17 -2z"/>
<path d="M9770 9860 c0 -18 23 -60 34 -60 6 0 5 5 -2 12 -7 7 -12 22 -12 35 0
13 -4 23 -10 23 -5 0 -10 -4 -10 -10z"/>
<path d="M9940 9815 c0 -19 2 -35 4 -35 2 0 6 16 8 35 2 19 0 35 -4 35 -4 0
-8 -16 -8 -35z"/>
<path d="M9898 9810 c15 -10 29 -15 32 -13 2 2 -2 8 -9 12 -11 7 -11 9 0 13 8
3 -1 5 -18 5 l-33 0 28 -17z"/>
<path d="M9890 9780 c0 -5 5 -10 10 -10 6 0 10 5 10 10 0 6 -4 10 -10 10 -5 0
-10 -4 -10 -10z"/>
<path d="M9790 9760 c0 -5 5 -10 10 -10 6 0 10 5 10 10 0 6 -4 10 -10 10 -5 0
-10 -4 -10 -10z"/>
<path d="M10081 9754 c-18 -21 -6 -30 14 -11 8 9 15 18 15 21 0 11 -15 5 -29
-10z"/>
<path d="M10145 9750 c4 -6 11 -8 16 -5 14 9 11 15 -7 15 -8 0 -12 -5 -9 -10z"/>
<path d="M10113 9719 c-2 -19 2 -20 33 -15 35 7 43 -1 22 -22 -9 -9 -9 -12 0
-12 7 0 12 5 12 10 0 6 7 10 15 10 8 0 15 5 15 10 0 6 -7 10 -15 10 -8 0 -15
4 -15 9 0 5 -8 7 -19 4 -10 -3 -22 0 -25 6 -11 17 -22 13 -23 -10z"/>
<path d="M9945 9720 c-3 -5 1 -10 9 -10 9 0 16 5 16 10 0 6 -4 10 -9 10 -6 0
-13 -4 -16 -10z"/>
<path d="M10070 9700 c0 -11 5 -20 10 -20 6 0 10 9 10 20 0 11 -4 20 -10 20
-5 0 -10 -9 -10 -20z"/>
<path d="M9730 9700 c20 -13 43 -13 35 0 -3 6 -16 10 -28 10 -18 0 -19 -2 -7
-10z"/>
<path d="M9860 9700 c0 -5 7 -10 15 -10 8 0 15 5 15 10 0 6 -7 10 -15 10 -8 0
-15 -4 -15 -10z"/>
<path d="M9976 9694 c-27 -19 -13 -30 14 -11 12 8 18 17 13 20 -4 3 -17 -1
-27 -9z"/>
<path d="M9915 9690 c-3 -5 1 -10 10 -10 9 0 13 5 10 10 -3 6 -8 10 -10 10 -2
0 -7 -4 -10 -10z"/>
<path d="M10045 9653 c5 -22 4 -25 -8 -15 -16 13 -50 5 -41 -9 3 -5 16 -9 29
-9 18 0 23 -4 19 -15 -8 -19 3 -19 22 -1 11 11 11 16 1 19 -7 3 -5 6 6 6 22 1
23 37 1 45 -30 11 -36 7 -29 -21z"/>
<path d="M10206 9671 c-8 -12 -55 -20 -62 -10 -10 17 -31 9 -43 -17 -6 -15 -9
-29 -6 -32 3 -3 -2 -13 -10 -22 -14 -16 -13 -22 10 -65 28 -53 32 -70 10 -41
-18 24 -34 13 -27 -20 4 -24 2 -26 -14 -19 -21 8 -33 9 -81 7 -18 -1 -33 -6
-33 -11 0 -5 11 -8 25 -7 22 3 25 -1 31 -41 7 -46 -1 -67 -16 -43 -5 8 -12 11
-15 8 -4 -4 2 -17 14 -29 12 -13 21 -29 21 -36 0 -7 5 -13 10 -13 6 0 10 -10
10 -21 0 -16 -5 -20 -20 -16 -11 3 -23 1 -26 -5 -8 -13 6 -64 14 -51 12 18 48
32 68 27 10 -3 24 -16 30 -29 10 -21 9 -26 -10 -38 -25 -17 -19 -29 11 -21 26
7 48 60 30 68 -7 4 16 4 51 1 40 -4 62 -2 62 5 0 5 -15 11 -32 11 l-33 2 35 7
c19 4 33 8 30 9 -3 1 -23 8 -45 16 l-40 14 32 1 c35 0 59 29 48 57 -5 14 -7
14 -19 -3 -16 -21 -32 -14 -23 11 4 8 15 15 26 15 18 0 20 8 20 122 1 70 -3
126 -10 134 -7 8 -7 14 1 19 16 10 13 65 -4 65 -8 0 -17 -4 -20 -9z m-42 -66
c-5 -13 -9 -12 -25 6 -11 12 -22 19 -25 16 -4 -3 2 -14 11 -24 12 -12 14 -18
6 -21 -15 -5 -17 -3 -25 24 -4 14 -1 28 9 38 14 14 17 14 35 -4 11 -11 17 -26
14 -35z m56 31 c0 -3 -4 -8 -10 -11 -5 -3 -10 -1 -10 4 0 6 5 11 10 11 6 0 10
-2 10 -4z m-25 -56 c-11 -5 -15 -9 -10 -9 6 -1 11 -10 12 -21 2 -17 -4 -20
-38 -20 -22 0 -47 6 -55 14 -19 19 -18 30 2 22 9 -4 22 -2 28 3 12 10 42 18
66 19 9 0 7 -3 -5 -8z m-35 -150 c11 -7 4 -10 -25 -10 -29 0 -36 3 -25 10 8 5
20 10 25 10 6 0 17 -5 25 -10z m57 -22 c-3 -7 -5 -2 -5 12 0 14 2 19 5 13 2
-7 2 -19 0 -25z m-167 -28 c0 -11 -4 -20 -10 -20 -5 0 -10 9 -10 20 0 11 5 20
10 20 6 0 10 -9 10 -20z m171 -97 c-12 -20 -14 -14 -5 12 4 9 9 14 11 11 3 -2
0 -13 -6 -23z m-37 -4 c-3 -6 -12 -8 -20 -5 -8 3 -14 1 -14 -4 0 -6 -4 -10
-10 -10 -18 0 -10 17 13 27 24 12 41 7 31 -8z"/>
<path d="M10150 9560 c0 -5 7 -10 16 -10 8 0 12 5 9 10 -3 6 -10 10 -16 10 -5
0 -9 -4 -9 -10z"/>
<path d="M9915 9640 c-3 -5 -1 -10 4 -10 6 0 11 5 11 10 0 6 -2 10 -4 10 -3 0
-8 -4 -11 -10z"/>
<path d="M4900 9624 c-219 -19 -413 -51 -588 -99 -157 -43 -395 -123 -482
-163 -86 -39 -332 -175 -367 -202 l-27 -21 -19 25 c-10 14 -57 50 -105 79
-262 161 -402 214 -655 251 -59 9 -109 16 -110 16 -1 0 -3 -156 -5 -348 -2
-250 -7 -376 -19 -452 -21 -144 -26 -251 -14 -308 l10 -47 -73 -67 c-75 -69
-180 -200 -280 -348 -89 -132 -240 -445 -280 -581 -67 -224 -70 -259 -71 -714
-1 -236 -6 -457 -13 -520 -20 -186 -25 -440 -13 -600 7 -82 16 -229 22 -325 5
-96 14 -201 20 -234 13 -73 86 -263 145 -378 48 -94 49 -98 34 -98 -5 0 -10 6
-10 14 0 7 -7 19 -15 26 -42 35 4 -72 99 -229 73 -119 177 -240 231 -265 32
-16 130 -23 190 -14 19 3 20 -4 25 -157 3 -88 2 -161 -2 -163 -11 -5 -10 -131
2 -171 22 -76 143 -165 275 -202 60 -17 108 -23 192 -23 61 -1 109 -5 106 -9
-3 -5 -11 -6 -19 -3 -8 3 -14 1 -14 -4 0 -6 11 -10 24 -10 24 0 41 -24 30 -41
-9 -15 5 -59 19 -59 7 0 17 -27 25 -67 9 -48 19 -73 35 -85 12 -10 19 -18 14
-18 -4 0 6 -27 23 -60 16 -33 30 -68 30 -79 0 -11 5 -23 11 -27 8 -4 7 -9 -2
-16 -11 -7 -11 -11 -1 -15 6 -2 12 -14 12 -25 0 -26 26 -53 34 -35 5 9 7 9 12
0 3 -7 10 -13 15 -13 5 0 23 -13 39 -30 16 -17 33 -30 38 -30 4 0 25 -17 45
-38 31 -31 43 -38 67 -34 19 3 30 0 30 -7 0 -7 4 -9 10 -6 5 3 7 0 5 -7 -10
-25 19 -50 58 -50 20 0 37 -4 37 -9 0 -5 7 -9 15 -9 8 0 15 -4 15 -10 0 -5 17
-10 38 -10 24 0 46 -7 59 -19 23 -22 73 -18 73 7 0 11 5 9 20 -8 11 -13 20
-18 20 -12 0 7 7 12 15 12 8 0 15 -7 15 -16 0 -15 2 -15 26 1 22 14 48 16 101
5 1 0 4 -19 6 -42 3 -24 5 -2 5 47 0 50 0 95 1 101 2 21 79 44 144 44 62 -1
78 -5 196 -55 62 -26 67 -27 120 -14 31 7 79 25 106 40 135 71 258 93 478 86
190 -6 257 -16 344 -52 71 -30 60 -31 -32 -5 -44 13 -129 24 -230 31 -248 17
-414 -13 -577 -104 -36 -20 -80 -53 -97 -72 l-30 -35 -41 44 c-56 61 -112 80
-230 81 l-95 0 -7 -45 c-3 -25 -7 -125 -7 -222 -1 -161 -3 -180 -20 -195 -87
-82 -107 -104 -138 -151 -20 -29 -37 -51 -40 -49 -2 2 9 42 24 88 28 88 65
139 101 139 26 0 32 25 32 147 l0 102 -75 -71 c-50 -47 -84 -90 -105 -131 -27
-54 -30 -69 -30 -156 0 -53 4 -111 10 -130 8 -29 5 -43 -20 -95 -34 -70 -50
-193 -50 -381 0 -63 -5 -136 -12 -164 -14 -63 4 -297 32 -406 25 -97 81 -206
138 -268 44 -47 45 -49 15 -34 -17 9 -41 31 -53 47 -26 37 -40 32 -16 -4 9
-14 16 -31 16 -39 0 -7 20 -42 45 -77 25 -35 45 -70 45 -78 0 -7 5 -10 12 -6
7 5 9 2 5 -9 -4 -10 -2 -14 7 -11 7 3 21 -4 31 -16 10 -11 14 -20 10 -20 -4 0
3 -9 16 -21 13 -12 35 -31 49 -43 14 -12 33 -38 44 -57 41 -75 59 -105 71
-119 7 -8 20 -32 30 -52 l17 -38 2959 0 2959 0 0 4149 0 4150 -22 4 -23 4 23
2 23 1 -2 235 c-2 129 -7 241 -11 247 -5 8 -6 3 -3 -12 3 -14 2 -37 -4 -50 -6
-15 -10 -19 -10 -9 -1 9 -8 22 -16 29 -8 7 -12 17 -8 23 3 6 10 0 15 -13 12
-33 20 -18 13 24 -4 21 -13 36 -21 36 -18 0 -18 14 1 30 12 10 15 10 15 -3 0
-8 7 -20 15 -27 13 -11 15 -1 15 84 0 89 -1 96 -20 96 -13 0 -20 7 -20 19 0
14 5 18 20 14 14 -4 20 0 20 11 0 19 -17 20 -53 4 -17 -8 -27 -21 -27 -35 0
-33 -10 -53 -27 -53 -11 0 -13 7 -9 26 6 23 4 26 -13 21 -25 -6 -26 -3 -6 17
20 20 9 48 -17 40 -15 -5 -19 -2 -16 12 2 10 14 21 28 25 21 6 19 7 -15 9 -22
1 -43 2 -47 1 -5 0 -8 14 -9 32 l-1 32 -14 -32 c-7 -17 -18 -34 -24 -38 -5 -3
-10 -16 -9 -28 0 -15 2 -17 6 -7 12 30 31 40 55 31 23 -10 23 -10 -3 -10 -28
-1 -39 -17 -39 -56 0 -12 -11 -33 -24 -46 -13 -13 -22 -29 -19 -36 3 -7 -2
-20 -11 -28 -14 -14 -16 -14 -22 10 -6 23 -11 25 -59 25 -30 0 -57 5 -60 11
-5 6 -12 4 -20 -7 -7 -10 -25 -17 -44 -17 -17 0 -27 -4 -20 -8 6 -4 28 -6 48
-4 20 1 26 0 13 -2 -16 -3 -22 -9 -18 -20 3 -8 6 -19 6 -24 0 -6 9 -7 22 -4
17 6 20 4 15 -9 -5 -11 -1 -16 14 -16 16 0 18 -5 13 -25 -6 -23 -4 -25 30 -25
20 0 36 5 36 10 0 6 7 10 15 10 22 0 18 -14 -7 -25 -34 -15 -36 -45 -3 -45 18
0 25 4 22 13 -3 7 3 13 13 13 20 0 15 -26 -7 -39 -23 -14 -14 -27 20 -27 18 0
38 -5 45 -12 9 -9 13 -6 20 12 9 23 9 23 23 3 8 -11 21 -23 29 -26 9 -4 5 -6
-10 -5 -14 2 -36 -5 -50 -15 -15 -11 -19 -17 -10 -17 13 0 13 -2 0 -11 -12 -8
-10 -9 8 -4 13 4 22 2 22 -4 0 -6 7 -11 15 -11 8 0 15 -4 15 -10 0 -5 -6 -10
-14 -10 -9 0 -12 -8 -8 -25 3 -18 0 -25 -12 -25 -9 0 -16 8 -16 20 0 11 -5 20
-11 20 -7 0 -8 -14 -4 -40 6 -36 5 -40 -14 -40 -15 0 -21 -6 -21 -21 0 -14 5
-19 13 -16 8 3 20 1 28 -3 23 -15 -18 -24 -47 -11 -14 6 -45 11 -69 11 -38 0
-45 3 -45 20 0 12 -7 20 -17 20 -10 0 -28 3 -40 6 -14 4 -23 2 -23 -5 0 -6 11
-11 25 -11 14 0 25 -4 25 -10 0 -5 -8 -10 -19 -10 -20 0 -48 -27 -38 -36 3 -4
13 1 22 10 19 19 65 22 65 4 0 -7 -14 -29 -30 -48 -16 -19 -30 -38 -30 -42 0
-5 -7 -8 -15 -8 -8 0 -15 5 -15 10 0 6 7 10 15 10 8 0 15 5 15 11 0 6 -7 8
-16 5 -9 -3 -22 -6 -30 -6 -8 0 -14 -9 -14 -20 0 -13 -7 -20 -20 -20 -13 0
-20 -7 -20 -20 0 -13 7 -20 20 -20 13 0 20 7 20 20 0 13 7 20 20 20 13 0 20
-7 20 -20 0 -13 -7 -20 -20 -20 -11 0 -20 -7 -20 -15 0 -8 -4 -15 -10 -15 -5
0 -10 -12 -10 -26 0 -16 -5 -24 -12 -21 -8 2 -12 18 -10 41 2 31 0 36 -18 36
-13 0 -20 -7 -20 -20 0 -11 -5 -20 -11 -20 -11 0 -39 25 -39 35 0 4 -7 14 -16
23 -15 15 -16 14 -9 -7 5 -16 3 -26 -6 -32 -11 -6 -11 -11 -1 -21 9 -9 12 -9
12 5 0 19 15 23 26 6 9 -15 -17 -30 -40 -23 -13 4 -17 2 -13 -7 2 -8 11 -12
18 -10 44 12 54 12 41 3 -8 -5 -12 -23 -10 -43 2 -26 9 -35 28 -40 22 -6 21
-7 -10 -8 -38 -1 -74 17 -52 26 14 6 16 43 2 43 -5 0 -10 -9 -10 -20 0 -23
-10 -26 -28 -8 -8 8 -12 9 -12 1 0 -6 6 -14 13 -17 10 -5 10 -7 0 -12 -7 -3
-13 -10 -13 -16 0 -6 6 -5 15 2 19 16 25 10 41 -38 10 -27 10 -33 1 -21 -16
21 -207 23 -207 2 0 -7 -9 -13 -20 -13 -12 0 -20 7 -20 16 0 10 -8 15 -22 13
-13 -1 -34 3 -48 10 -23 10 -23 11 10 6 34 -5 34 -4 8 6 -22 8 -35 7 -59 -5
-18 -9 -45 -16 -61 -16 -21 0 -28 -5 -28 -20 0 -13 -7 -20 -20 -20 -11 0 -20
-6 -20 -14 0 -14 -21 -26 -43 -26 -7 0 -6 4 3 10 11 7 7 10 -18 10 -19 0 -35
6 -38 14 -3 8 -23 17 -45 21 -21 4 -39 11 -39 17 0 6 -6 5 -15 -2 -9 -7 -24
-9 -37 -6 -82 25 -89 25 -98 0 -5 -13 -12 -24 -15 -24 -4 0 -3 5 0 10 13 22
-14 39 -47 29 -17 -4 -33 -11 -37 -15 -3 -4 5 -3 19 0 22 6 23 5 7 -4 -19 -12
-32 -7 -32 13 0 7 -10 12 -23 11 -12 0 -23 4 -23 10 -1 6 -4 -2 -8 -18 -6 -31
-31 -48 -31 -22 0 9 -8 16 -21 16 -11 0 -18 -4 -15 -8 2 -4 1 -14 -5 -22 -6
-12 -9 -12 -9 -2 0 10 -3 10 -15 -2 -8 -8 -15 -19 -15 -25 0 -6 -12 -11 -26
-11 -25 0 -26 -2 -21 -40 3 -23 1 -38 -4 -34 -5 3 -9 16 -9 29 0 12 -13 72
-28 131 -60 230 -198 449 -401 637 -61 56 -118 99 -157 118 l-63 29 6 163 c3
89 2 225 -3 302 l-8 140 -10 -100 c-5 -55 -9 -189 -9 -297 l1 -198 -31 0 -32
0 -5 113 c-3 61 -5 192 -5 290 l0 177 -29 0 c-59 0 -279 -42 -389 -75 -115
-33 -272 -105 -337 -152 -19 -14 -56 -46 -82 -71 l-47 -45 -23 26 c-28 31
-253 154 -363 197 -217 87 -487 172 -635 200 -127 25 -341 41 -575 44 -137 2
-270 2 -295 0z m705 -193 c175 -24 255 -43 459 -112 246 -83 430 -167 569
-261 l58 -40 -25 -24 c-13 -14 -44 -51 -67 -82 -24 -31 -46 -61 -50 -66 -10
-11 -41 2 -269 109 -189 89 -281 121 -500 174 -293 70 -329 75 -560 76 -260 0
-518 -24 -523 -50 -3 -15 126 -48 293 -73 59 -9 68 -8 95 11 61 43 -93 -113
-230 -234 -77 -67 -231 -214 -341 -327 -117 -118 -207 -202 -213 -198 -6 4
-11 15 -11 25 0 19 -66 84 -127 125 -24 16 -43 32 -43 37 0 15 -71 31 -108 24
l-37 -6 28 28 c15 15 139 134 275 263 296 282 355 340 351 344 -12 10 -375
-93 -494 -140 -135 -54 -333 -152 -405 -200 l-34 -24 -31 37 c-37 46 -92 100
-123 121 l-24 16 24 18 c55 45 161 110 267 163 303 152 659 250 1036 284 168
16 588 6 760 -18z m1868 -443 c-8 -376 -9 -498 -6 -1463 3 -1264 -2 -3693 -7
-3698 -8 -7 -198 21 -265 40 -137 37 -253 121 -309 224 -15 26 -36 83 -48 126
-22 77 -22 87 -28 1073 -4 831 -3 1003 9 1045 11 39 12 71 3 155 -6 64 -9 368
-7 783 l3 678 -97 -102 c-53 -56 -125 -138 -161 -182 -138 -172 -1424 -1437
-1461 -1437 -9 0 -858 837 -1165 1150 -239 243 -401 419 -489 532 l-40 51 -5
-1854 c-6 -2098 3 -1892 -90 -2032 -100 -149 -173 -192 -420 -246 l-125 -27 0
2743 c0 1509 1 2743 2 2743 10 0 255 -86 278 -97 79 -41 215 -172 1097 -1055
521 -521 949 -948 951 -948 8 0 422 407 676 665 612 621 1258 1259 1310 1294
111 75 293 149 373 150 l27 1 -6 -312z m-1950 137 c54 -13 126 -36 160 -51 34
-14 74 -28 89 -31 15 -3 29 -11 32 -18 3 -8 -50 -71 -121 -147 -216 -229 -933
-941 -940 -934 -4 3 -8 16 -10 27 -5 33 -55 95 -92 116 -19 10 -47 28 -61 40
-14 12 -50 26 -78 31 -53 9 -53 9 -84 -27 l-30 -36 18 33 c11 18 89 104 174
191 85 86 220 224 300 305 227 231 528 526 537 526 5 0 52 -11 106 -25z m4485
-157 c-6 -18 -28 -21 -28 -4 0 9 7 16 16 16 9 0 14 -5 12 -12z m-3942 -17
c-10 -15 83 -84 177 -131 133 -66 133 -63 -21 -223 -70 -73 -248 -263 -397
-422 -317 -338 -596 -622 -645 -655 l-35 -23 30 32 c16 18 23 30 15 27 -11 -5
-16 2 -17 24 -3 40 -197 266 -227 264 -16 -1 -15 2 7 18 14 10 231 229 483
486 432 440 670 668 630 603z m4124 -10 c0 -11 -4 -23 -10 -26 -6 -4 -10 5
-10 19 0 14 5 26 10 26 6 0 10 -9 10 -19z m-136 -19 c3 -5 -8 -19 -24 -31
l-30 -22 0 25 c0 18 6 26 23 29 12 2 23 5 24 6 1 0 4 -3 7 -7z m-154 -27 c0
-29 34 -36 44 -9 3 8 11 12 17 9 16 -10 -20 -45 -38 -38 -9 4 -21 -1 -29 -11
-7 -11 -21 -16 -36 -14 -22 4 -22 5 8 19 26 12 29 16 18 27 -17 15 -44 16 -44
0 0 -6 -2 -9 -5 -6 -3 3 -3 12 1 21 5 14 14 18 57 26 4 0 7 -10 7 -24z m210 0
c0 -21 5 -25 28 -25 l27 1 -25 14 -25 14 28 1 c30 0 32 -6 16 -47 -8 -22 -7
-30 7 -40 20 -14 13 -25 -16 -30 -16 -2 -20 3 -20 23 0 18 -4 25 -14 21 -9 -4
-14 2 -14 16 0 12 -4 34 -7 50 -5 17 -3 27 4 27 6 0 11 -11 11 -25z m-16 -31
c8 -21 -7 -17 -21 6 -11 16 -10 18 1 14 8 -3 17 -12 20 -20z m-44 -4 c0 -5 -7
-10 -15 -10 -8 0 -15 5 -15 10 0 6 7 10 15 10 8 0 15 -4 15 -10z m-80 -40 c0
-5 -7 -10 -15 -10 -8 0 -15 5 -15 10 0 6 7 10 15 10 8 0 15 -4 15 -10z m130
-30 c0 -31 12 -54 20 -39 10 16 40 4 40 -16 0 -11 -11 -15 -40 -15 -22 0 -40
5 -40 10 0 6 6 10 13 11 10 0 10 2 0 6 -7 2 -13 10 -13 18 0 7 -15 16 -32 19
l-33 7 35 13 c41 14 50 12 50 -14z m-66 -121 c-4 -7 0 -9 12 -6 66 18 74 18
74 -3 0 -16 -5 -19 -32 -14 -76 13 -83 15 -67 25 19 12 22 11 13 -2z m66 -84
c0 -7 -7 -15 -15 -19 -11 -4 -15 1 -15 19 0 18 4 23 15 19 8 -4 15 -12 15 -19z
m54 0 c-4 -8 -10 -15 -15 -15 -5 0 -9 7 -9 15 0 8 7 15 15 15 9 0 12 -6 9 -15z
m-2080 -204 c56 -93 97 -200 133 -351 24 -99 26 -124 30 -437 5 -322 4 -335
-17 -405 -50 -164 -145 -319 -289 -470 -99 -104 -224 -217 -215 -194 3 9 9 16
13 16 13 0 -10 216 -29 271 -11 30 -20 65 -20 77 0 11 -4 23 -9 26 -5 3 -12
27 -16 52 -9 66 -13 73 -37 66 -30 -7 -23 4 72 125 111 141 214 282 234 322
18 34 53 226 60 329 2 33 6 64 9 69 10 17 6 80 -7 113 -8 19 -22 62 -32 95 -9
33 -20 67 -24 75 -42 89 -63 145 -40 110 8 -12 10 -11 10 7 0 12 6 23 13 25
14 5 28 174 15 200 -5 10 -4 19 2 23 6 4 4 16 -6 33 -9 15 10 -1 42 -34 33
-34 81 -98 108 -143z m1926 34 c0 -9 -9 -15 -21 -15 -18 0 -20 -4 -15 -26 4
-14 14 -37 22 -50 14 -20 18 -21 30 -9 8 7 14 21 14 29 0 9 7 16 15 16 18 0
21 -46 3 -52 -7 -3 -13 -22 -13 -46 0 -33 3 -41 15 -37 8 2 22 0 30 -6 11 -8
9 -9 -9 -4 -19 6 -23 4 -18 -8 3 -9 1 -18 -6 -21 -9 -3 -8 -8 3 -15 17 -12 10
-14 -40 -11 -19 1 -38 7 -42 13 -3 6 -11 -5 -16 -24 l-10 -34 -2 35 c-1 33 -2
33 -12 13 -11 -23 -48 -32 -48 -13 0 6 9 10 21 10 14 0 19 6 17 18 -1 9 1 23
5 30 5 6 4 12 -2 12 -6 0 -8 7 -5 15 4 8 1 15 -4 15 -6 0 -13 -8 -15 -17 -3
-12 -5 -8 -6 9 -2 45 -21 43 -21 -1 0 -23 -4 -41 -10 -41 -17 0 -12 80 5 86
23 9 18 34 -7 34 -19 0 -20 2 -8 10 11 7 3 10 -28 10 -27 0 -41 4 -37 10 4 6
11 8 16 4 6 -3 31 -3 56 1 33 5 42 9 32 16 -8 4 -31 6 -51 2 -25 -4 -38 -2
-38 6 0 6 5 11 10 11 6 0 10 7 10 15 0 8 7 15 15 15 8 0 15 -3 15 -8 0 -4 25
-8 55 -10 44 -3 55 0 55 12 0 9 9 16 20 16 11 0 20 -7 20 -15z m120 -35 c0 -5
-13 -10 -30 -10 -16 0 -30 5 -30 10 0 6 14 10 30 10 17 0 30 -4 30 -10z m-320
-94 c0 -21 -6 -36 -15 -40 -8 -3 -15 -15 -15 -26 0 -13 -7 -20 -20 -20 -14 0
-20 -7 -21 -22 -1 -19 -2 -19 -6 -5 -7 28 6 67 22 67 11 0 15 11 15 40 0 33 3
40 20 40 16 0 20 -7 20 -34z m390 -16 c0 -5 -4 -10 -10 -10 -5 0 -10 5 -10 10
0 6 5 10 10 10 6 0 10 -4 10 -10z m-360 -35 c0 -8 -4 -15 -10 -15 -5 0 -10 7
-10 15 0 8 5 15 10 15 6 0 10 -7 10 -15z m360 11 c0 -3 -4 -8 -10 -11 -5 -3
-10 -1 -10 4 0 6 5 11 10 11 6 0 10 -2 10 -4z m-530 -21 c0 -8 -7 -15 -15 -15
-8 0 -15 7 -15 15 0 8 7 15 15 15 8 0 15 -7 15 -15z m178 -44 c11 -7 10 -9 -3
-14 -10 -4 -14 -3 -9 4 4 8 -1 9 -17 4 -19 -5 -21 -4 -9 4 18 13 21 13 38 2z
m-7268 -351 l0 -320 -71 -67 c-154 -147 -232 -327 -264 -608 -8 -71 -15 -135
-15 -141 0 -6 -13 -14 -30 -17 -37 -8 -100 -65 -137 -123 -15 -24 -31 -44 -35
-44 -28 0 -31 441 -4 587 47 260 167 536 344 793 61 89 198 260 207 260 3 0 5
-144 5 -320z m7350 296 c0 -2 -7 -7 -16 -10 -8 -3 -12 -2 -9 4 6 10 25 14 25
6z m110 -26 c0 -5 -4 -10 -10 -10 -5 0 -10 5 -10 10 0 6 5 10 10 10 6 0 10 -4
10 -10z m-1603 -1042 c-2 -35 -3 -7 -3 62 0 69 1 97 3 63 2 -35 2 -91 0 -125z
m-4534 -105 c53 5 56 4 90 -31 19 -21 38 -47 42 -59 3 -13 14 -23 23 -23 12 0
13 -3 4 -12 -7 -7 -12 -17 -12 -22 0 -7 3 -8 8 -1 9 13 42 39 42 33 0 -3 -44
-43 -97 -89 -53 -46 -131 -115 -171 -154 -59 -56 -69 -62 -49 -32 26 38 26 38
26 215 1 40 5 81 11 92 5 10 11 37 12 60 1 22 5 35 9 29 5 -8 25 -10 62 -6z
m-1287 -75 c-3 -24 -5 -150 -5 -281 l-1 -238 -167 -167 c-241 -242 -365 -405
-429 -561 l-22 -55 -6 35 c-3 19 -10 61 -16 94 -29 182 -21 348 25 493 50 158
230 382 489 607 72 63 132 114 134 114 2 1 1 -18 -2 -41z m3804 -51 c0 -8 -10
-19 -22 -26 -14 -7 -15 -9 -5 -6 15 4 17 1 12 -18 -5 -16 -4 -18 4 -8 8 12 14
13 35 3 14 -6 26 -18 26 -26 0 -8 15 -27 34 -41 19 -14 44 -47 56 -73 36 -78
44 -92 52 -92 5 0 8 -9 8 -21 0 -13 4 -18 12 -13 46 29 -140 -162 -945 -967
-1093 -1095 -1406 -1397 -1490 -1440 -17 -9 -19 -9 -11 0 8 9 4 27 -19 69 -17
31 -35 60 -40 63 -13 9 -37 80 -31 90 4 8 1 17 -24 66 -7 13 -12 34 -12 47 0
25 -12 28 -40 11 -14 -8 384 393 1659 1674 443 444 720 715 739 720 1 1 2 -5
2 -12z m-2177 -139 c-19 -21 -22 -54 -3 -43 4 2 15 -14 24 -38 20 -48 118
-138 189 -173 42 -20 47 -20 63 -5 10 9 -5 -11 -33 -44 -47 -56 -160 -164
-313 -300 -36 -32 -131 -123 -212 -202 -93 -91 -152 -142 -159 -137 -7 4 -9 3
-6 -3 4 -6 1 -16 -6 -21 -10 -9 -13 -4 -11 21 2 18 4 69 6 115 1 45 7 82 12
82 4 0 6 10 3 22 -3 11 1 37 9 57 8 19 12 47 9 61 -3 15 -1 40 6 56 6 16 12
57 13 90 1 59 0 61 -19 52 -28 -14 275 291 365 368 79 67 97 78 63 42z m3997
-402 c-13 -90 -59 -183 -125 -252 -28 -30 -48 -54 -45 -54 8 0 -84 -80 -93
-80 -5 0 -2 7 7 15 8 8 18 25 22 38 6 20 81 96 95 97 3 0 9 21 12 48 7 62 74
264 93 278 8 6 14 20 14 30 0 16 2 17 10 4 7 -11 10 -1 12 35 2 41 3 37 5 -19
2 -38 -1 -101 -7 -140z m-4620 103 c-19 -16 -38 -29 -42 -29 -4 0 -8 13 -8 29
0 27 2 28 42 28 l42 0 -34 -28z m1288 -257 c26 -27 54 -53 63 -58 9 -5 29 -29
44 -54 16 -25 30 -40 32 -33 3 8 14 6 37 -8 19 -11 48 -21 65 -22 17 -1 31 -5
31 -9 0 -4 7 -5 15 -2 8 4 15 3 15 -1 0 -18 -151 -176 -410 -429 -157 -154
-405 -399 -551 -545 -332 -332 -386 -383 -369 -351 17 31 15 60 -10 125 -24
65 -40 164 -40 251 0 38 -5 87 -11 108 l-11 39 519 519 c285 285 521 518 526
518 4 0 29 -22 55 -48z m-2300 -342 l3 -270 -57 -63 c-95 -104 -164 -224 -205
-357 -19 -61 -23 -97 -23 -190 1 -191 53 -344 159 -465 57 -65 85 -113 85
-144 0 -18 -3 -18 -37 -9 -21 6 -56 19 -77 30 -62 31 -207 183 -260 272 -57
96 -122 253 -141 344 -19 89 -19 274 1 370 33 162 127 334 270 494 77 87 257
255 274 257 3 1 6 -121 8 -269z m3958 228 c-38 -47 -48 -77 -43 -123 3 -22 12
-103 20 -180 9 -77 18 -148 21 -157 3 -10 9 -26 13 -35 3 -10 7 -22 8 -28 2
-5 4 -15 6 -22 6 -19 -1247 -1244 -1284 -1255 -12 -3 -16 -6 -8 -7 11 -1 10
-6 -5 -20 -16 -15 -20 -16 -27 -4 -5 8 -4 19 1 26 20 23 -14 147 -40 147 -22
0 -78 45 -78 63 0 9 -3 17 -8 17 -4 0 -13 13 -20 29 -16 35 -48 43 -107 24
-35 -11 22 49 440 463 485 480 1120 1094 1131 1094 4 0 -5 -15 -20 -32z m1627
-295 c-18 -115 -137 -429 -215 -565 -65 -116 -217 -307 -282 -355 -47 -36 -54
-31 -45 35 4 31 10 120 14 197 6 108 12 147 26 175 11 19 19 39 19 43 0 5 15
29 33 54 17 24 57 90 87 145 30 56 64 106 75 112 11 6 38 25 60 42 43 33 145
88 183 99 13 4 28 18 34 31 15 33 18 30 11 -13z m187 -160 c-11 -17 -11 -17
-6 0 3 10 7 26 7 35 1 15 2 15 6 0 2 -10 -1 -25 -7 -35z m-13 -55 c-3 -8 -6
-5 -6 6 -1 11 2 17 5 13 3 -3 4 -12 1 -19z m-41 -128 c-15 -38 -32 -72 -36
-75 -8 -5 4 32 41 128 6 15 14 26 17 23 3 -3 -7 -37 -22 -76z m-95 -193 c-10
-9 -11 -8 -5 6 3 10 9 15 12 12 3 -3 0 -11 -7 -18z m-101 -177 c-6 -11 -13
-20 -16 -20 -2 0 0 9 6 20 6 11 13 20 16 20 2 0 0 -9 -6 -20z m-47 -75 c-3 -9
-8 -14 -10 -11 -3 3 -2 9 2 15 9 16 15 13 8 -4z m-1847 -119 c-25 -30 -46 -59
-46 -65 0 -6 -7 -11 -15 -11 -17 0 -20 -23 -5 -50 7 -12 16 -17 27 -13 26 10
11 -95 -17 -114 -11 -8 -20 -21 -20 -29 0 -8 -5 -14 -10 -14 -6 0 -14 -8 -17
-17 -17 -43 -50 -63 -108 -63 -30 0 -55 5 -55 10 0 6 -9 10 -19 10 -13 0 -21
8 -23 22 -3 22 -5 21 -39 -12 -20 -19 -65 -60 -100 -90 -35 -30 -73 -64 -85
-75 -108 -102 -37 -29 156 160 308 302 414 405 419 405 2 0 -17 -24 -43 -54z
m204 -319 c0 -1 -48 -50 -106 -107 -58 -58 -101 -95 -95 -82 7 12 16 22 21 22
6 0 10 5 10 11 0 5 -4 7 -10 4 -5 -3 -10 -1 -10 4 0 6 9 11 20 11 11 0 20 7
20 16 0 8 4 13 9 9 12 -7 43 24 36 36 -4 5 0 9 7 9 8 0 29 15 48 34 31 29 50
42 50 33z m-4386 -33 c5 -14 4 -15 -9 -4 -17 14 -19 20 -6 20 5 0 12 -7 15
-16z m4169 -159 c-3 -9 -8 -14 -10 -11 -3 3 -2 9 2 15 9 16 15 13 8 -4z m458
-19 c-15 -18 -17 -55 -3 -96 14 -44 18 -112 8 -129 -30 -48 -427 -249 -651
-329 -144 -51 -364 -113 -470 -131 -113 -20 -347 -41 -455 -41 -486 0 -1018
160 -1443 433 -62 40 -75 52 -63 59 9 5 16 22 16 41 0 18 7 50 14 72 9 26 11
47 5 63 -8 21 -7 23 13 17 36 -11 235 -107 323 -156 94 -53 362 -160 455 -184
287 -71 463 -95 705 -95 195 0 195 0 465 62 353 81 576 162 850 306 147 77
232 121 239 121 2 1 -2 -5 -8 -13z m-461 -10 c0 -2 -7 -9 -15 -16 -13 -11 -14
-10 -9 4 5 14 24 23 24 12z m-54 -54 c-17 -16 -18 -16 -5 5 7 12 15 20 18 17
3 -2 -3 -12 -13 -22z m600 -405 c27 -24 65 -49 84 -57 19 -8 37 -17 40 -21 3
-4 17 -10 30 -13 27 -5 108 -43 161 -75 l33 -20 -39 6 c-83 13 -275 117 -342
185 -50 52 -27 48 33 -5z m-3402 -78 c-22 -36 -324 -141 -396 -138 -13 1 9 9
47 19 80 20 179 55 280 99 81 35 78 34 69 20z m-733 -80 c11 -5 52 -19 92 -30
61 -17 65 -19 26 -15 -40 5 -168 53 -146 55 5 1 17 -4 28 -10z m4854 -48 c-22
-9 -137 -24 -119 -16 14 7 94 23 119 23 l20 1 -20 -8z m-4328 -297 c-3 -3 -12
-4 -19 -1 -8 3 -5 6 6 6 11 1 17 -2 13 -5z m2884 -705 c19 -6 40 -19 47 -27
15 -19 17 -249 2 -272 -7 -10 -10 6 -10 56 0 39 -3 99 -6 132 -7 61 -8 62 -43
72 -92 25 -189 0 -254 -66 -27 -27 -48 -41 -52 -34 -3 6 -36 33 -73 62 -37 28
-62 49 -57 46 6 -2 26 -11 45 -20 70 -32 103 -32 140 -2 64 54 183 78 261 53z
m-716 -39 c55 -11 114 -24 132 -29 47 -14 164 -77 204 -110 29 -25 32 -31 20
-45 -20 -24 -34 -20 -122 31 -44 25 -103 53 -132 60 -97 27 -130 34 -141 29
-6 -2 -1 -5 10 -5 23 -1 74 -37 74 -52 0 -12 -387 -417 -411 -429 -12 -7 -29
2 -68 38 l-53 47 201 203 c111 111 201 205 201 207 0 3 -39 5 -87 4 -49 0 -82
-3 -75 -6 39 -15 -13 -91 -161 -236 -131 -128 -130 -127 -161 -78 -14 22 -30
42 -36 46 -24 15 -8 46 47 86 31 23 84 65 117 94 34 28 72 58 86 68 l24 17
-26 0 c-35 0 -180 -46 -239 -76 -25 -12 -67 -39 -93 -59 -51 -39 -59 -38 -81
4 l-14 29 57 35 c73 44 146 81 195 97 161 52 364 63 532 30z m672 -222 c-4
-95 -10 -301 -13 -458 l-7 -284 -40 -39 c-66 -63 -107 -91 -118 -80 -6 6 -12
135 -16 313 l-6 303 -75 -79 c-42 -44 -193 -197 -335 -341 l-260 -262 -41 36
c-83 73 -352 340 -403 400 -29 34 -92 97 -140 139 l-88 78 -6 -814 c-3 -448
-9 -825 -13 -836 -10 -29 -47 -44 -107 -44 -39 0 -55 5 -73 23 -22 23 -23 26
-29 372 -9 448 -9 1319 0 1555 l6 182 46 -6 c80 -11 120 -39 245 -173 66 -70
192 -196 280 -279 89 -83 193 -185 232 -227 39 -42 72 -77 75 -77 9 1 299 282
486 472 203 206 265 259 330 283 80 29 77 37 70 -157z m-424 50 c30 -15 36
-22 28 -36 -30 -56 -468 -502 -493 -502 -13 0 -98 85 -98 99 0 14 310 332 403
412 74 65 82 66 160 27z m668 -165 c47 -42 53 -63 7 -23 -87 75 -94 82 -70 70
13 -7 41 -28 63 -47z m-56 -143 c-3 -5 -2 -10 4 -10 18 0 41 -57 40 -97 0 -21
-9 -56 -19 -78 l-19 -40 -1 40 c-1 22 -4 49 -7 60 -15 62 -19 121 -9 127 15
10 18 10 11 -2z m-2080 -290 c-60 -90 -94 -166 -101 -226 -8 -70 -20 -96 -58
-126 l-34 -27 -7 84 c-15 176 48 339 183 478 l57 58 3 -86 3 -86 -46 -69z
m2177 8 c2 -111 0 -128 -22 -172 -28 -58 -114 -148 -260 -270 -111 -93 -177
-131 -223 -128 -35 3 -109 -47 -134 -89 -17 -29 -140 -141 -268 -244 -34 -27
-96 -77 -136 -110 -41 -32 -119 -103 -174 -155 -114 -110 -254 -230 -267 -230
-21 0 -49 22 -63 50 l-16 30 73 67 c40 37 177 171 304 298 232 232 364 355
438 410 98 71 168 114 179 109 7 -2 33 14 57 37 25 23 86 72 135 110 131 101
277 264 323 362 26 55 38 73 44 62 5 -8 9 -70 10 -137z m105 -275 c-2 -38 -3
-7 -3 67 0 74 1 105 3 68 2 -38 2 -98 0 -135z m-1629 121 c15 -14 21 -28 16
-36 -14 -22 -98 -108 -106 -108 -4 0 -8 30 -8 68 0 47 -3 63 -10 52 -7 -11
-10 -11 -10 -2 0 7 11 24 24 37 28 28 58 24 94 -11z m933 -21 c3 -105 -15
-135 -173 -295 -175 -176 -491 -473 -595 -559 -48 -40 -122 -106 -164 -145
-90 -85 -172 -135 -135 -82 9 12 16 37 16 55 0 50 30 165 52 201 21 35 71 71
148 108 49 23 203 158 460 404 220 210 373 350 382 350 5 0 8 -17 9 -37z
m-1522 -137 c2 -105 12 -85 -116 -233 -82 -95 -113 -146 -134 -218 -10 -33
-18 -55 -19 -50 0 6 -5 44 -11 85 -14 110 2 193 53 272 36 56 204 238 220 238
3 0 6 -42 7 -94z m645 38 c9 -3 16 -11 16 -17 0 -6 7 -18 15 -27 14 -15 12
-21 -14 -54 -55 -68 -195 -186 -223 -186 -11 0 -11 2 1 9 7 5 11 13 7 19 -4 6
-3 30 0 53 6 35 20 56 88 126 85 87 85 87 110 77z m164 -140 c13 8 21 -15 11
-29 -63 -83 -326 -335 -350 -335 -5 0 2 22 15 48 14 27 34 78 46 114 19 59 30
74 116 158 l95 93 28 -27 c16 -16 34 -25 39 -22z m1282 -59 c-7 -8 -10 -15 -6
-15 12 0 -21 -55 -45 -75 -13 -11 -21 -16 -17 -11 4 4 3 19 -3 32 -7 21 -5 26
16 34 14 5 25 16 25 24 0 8 8 17 18 19 9 3 19 5 21 6 2 0 -2 -6 -9 -14z
m-1181 -150 c-79 -81 -156 -155 -170 -165 l-26 -19 9 51 c17 93 75 180 158
236 48 32 50 33 81 16 31 -15 32 -15 57 10 14 14 28 24 30 21 2 -2 -60 -70
-139 -150z m1308 68 c-3 -10 -5 -2 -5 17 0 19 2 27 5 18 2 -10 2 -26 0 -35z
m-2222 -100 l7 -88 -40 -43 c-44 -48 -96 -140 -107 -189 -12 -57 4 -93 71
-164 35 -38 64 -72 64 -77 0 -21 -15 -19 -60 9 -47 29 -62 49 -137 182 -38 67
-23 198 34 297 25 43 137 160 153 160 4 0 11 -39 15 -87z m1575 -103 c0 -26
-92 -133 -127 -147 -30 -12 -33 -11 -31 5 3 36 -2 52 -17 52 -11 0 -15 -11
-15 -36 0 -24 -4 -33 -12 -28 -6 4 -8 3 -4 -4 9 -15 -10 -59 -37 -85 -12 -12
-49 -53 -81 -92 -90 -108 -147 -166 -157 -160 -5 4 -9 2 -9 -3 0 -5 -11 -14
-24 -22 -14 -7 -22 -18 -19 -26 3 -8 0 -14 -6 -14 -6 0 -11 5 -11 11 0 5 -4 7
-10 4 -18 -11 -10 4 15 30 14 14 23 25 19 25 -3 0 -1 7 7 16 7 9 12 36 10 65
-1 29 2 49 9 49 5 0 10 7 10 15 0 8 3 15 8 15 4 0 32 24 62 53 31 28 71 63 90
77 47 35 154 130 158 141 2 5 10 9 17 9 7 0 15 3 17 8 2 4 27 29 57 55 l55 48
12 -23 c8 -13 13 -30 14 -38z m237 -2 c-2 -13 -4 -5 -4 17 -1 22 1 32 4 23 2
-10 2 -28 0 -40z m276 25 c11 -7 0 -50 -23 -87 -22 -36 -94 -106 -109 -106 -5
0 -11 20 -13 45 -3 37 0 44 12 40 12 -5 13 -4 3 6 -18 18 -16 32 3 25 8 -3 12
-2 9 4 -9 15 15 52 31 46 7 -3 13 -2 12 2 -1 4 2 15 6 24 6 13 15 16 35 12 14
-4 29 -9 34 -11z m-2101 -345 l-10 -33 -16 39 c-18 41 -17 60 12 136 l17 45 3
-77 c2 -42 -1 -92 -6 -110z m1813 -275 c-20 -30 -73 -63 -101 -63 -42 0 -49
24 -49 169 0 159 2 166 98 267 l62 67 3 -208 c2 -176 0 -212 -13 -232z m114
77 c-5 -9 -8 19 -7 70 l1 85 7 -70 c4 -38 4 -77 -1 -85z m-344 -66 c-71 -122
-333 -240 -575 -260 -148 -13 -325 27 -481 108 -98 50 -159 102 -159 134 0 32
10 31 88 -15 170 -98 240 -125 382 -145 131 -18 231 -6 405 51 112 36 170 71
271 166 l89 82 3 -38 c2 -27 -4 -51 -23 -83z m-1591 10 c6 -55 22 -88 60 -131
32 -37 0 -26 -37 12 -36 37 -47 70 -47 136 0 58 16 47 24 -17z m1096 -87 c0
-2 -19 -21 -42 -42 l-43 -40 40 43 c36 39 45 47 45 39z"/>
<path d="M7409 8623 c-13 -16 -12 -17 4 -4 16 13 21 21 13 21 -2 0 -10 -8 -17
-17z"/>
<path d="M7279 8473 c-18 -21 -75 -84 -128 -141 -110 -118 -136 -156 -36 -52
37 38 73 68 79 67 6 -1 10 4 8 11 -1 8 1 11 6 8 9 -5 72 59 72 74 0 4 6 13 14
19 12 10 29 51 21 51 -2 0 -18 -17 -36 -37z"/>
<path d="M6994 8158 l-19 -23 23 19 c21 18 27 26 19 26 -2 0 -12 -10 -23 -22z"/>
<path d="M5098 7013 c12 -2 32 -2 45 0 12 2 2 4 -23 4 -25 0 -35 -2 -22 -4z"/>
<path d="M7050 6594 c-36 -36 -91 -88 -122 -115 -32 -26 -54 -50 -49 -53 5 -3
64 48 132 114 68 65 119 119 114 120 -6 0 -40 -30 -75 -66z"/>
<path d="M9998 8260 c12 -11 24 -20 27 -20 3 0 0 9 -7 20 -7 11 -19 20 -27 20
-11 0 -9 -6 7 -20z"/>
<path d="M9955 8250 c-3 -5 1 -10 10 -10 9 0 13 5 10 10 -3 6 -8 10 -10 10 -2
0 -7 -4 -10 -10z"/>
<path d="M9888 9608 c9 -9 15 -9 24 0 9 9 7 12 -12 12 -19 0 -21 -3 -12 -12z"/>
<path d="M9949 9603 c-13 -16 -12 -17 4 -4 9 7 17 15 17 17 0 8 -8 3 -21 -13z"/>
<path d="M9980 9550 c-12 -8 -10 -10 8 -10 13 0 20 4 17 10 -7 12 -6 12 -25 0z"/>
<path d="M9990 9490 c0 -5 6 -10 14 -10 8 0 18 5 21 10 3 6 -3 10 -14 10 -12
0 -21 -4 -21 -10z"/>
<path d="M9910 9471 c0 -5 5 -13 10 -16 6 -3 10 -2 10 4 0 5 -4 13 -10 16 -5
3 -10 2 -10 -4z"/>
<path d="M9910 9270 c0 -5 5 -10 10 -10 6 0 10 5 10 10 0 6 -4 10 -10 10 -5 0
-10 -4 -10 -10z"/>
<path d="M9830 9200 c0 -5 5 -10 10 -10 6 0 10 5 10 10 0 6 -4 10 -10 10 -5 0
-10 -4 -10 -10z"/>
<path d="M9900 9200 c0 -5 -9 -10 -20 -10 -11 0 -20 -4 -20 -10 0 -5 -7 -10
-15 -10 -8 0 -15 -4 -15 -10 0 -5 7 -10 15 -10 8 0 15 5 15 10 0 6 6 10 14 10
9 0 12 -8 9 -24 -4 -19 0 -24 21 -28 31 -6 44 7 21 20 -13 7 -14 14 -5 36 13
35 13 36 -5 36 -8 0 -15 -4 -15 -10z"/>
<path d="M9791 9174 c0 -11 3 -14 6 -6 3 7 2 16 -1 19 -3 4 -6 -2 -5 -13z"/>
<path d="M10050 9155 c0 -8 5 -15 10 -15 6 0 10 7 10 15 0 8 -4 15 -10 15 -5
0 -10 -7 -10 -15z"/>
<path d="M10177 9149 c-10 -11 -16 -27 -13 -35 4 -9 -3 -18 -17 -24 -16 -6 -7
-9 38 -8 50 1 54 2 25 8 l-35 7 35 5 35 5 -32 1 c-43 2 -45 30 -3 39 35 7 40
23 7 23 -12 0 -31 -9 -40 -21z"/>
<path d="M9711 9128 c-1 -21 4 -38 9 -38 11 0 11 14 0 50 -7 22 -8 21 -9 -12z"/>
<path d="M9945 9150 c4 -6 11 -8 16 -5 14 9 11 15 -7 15 -8 0 -12 -5 -9 -10z"/>
<path d="M9746 9081 c-4 -6 -3 -18 2 -27 8 -14 10 -14 15 -2 7 19 -8 44 -17
29z"/>
<path d="M9853 9060 c-6 -17 -8 -30 -3 -30 8 0 24 50 18 56 -2 2 -9 -10 -15
-26z"/>
<path d="M9955 9080 c3 -5 8 -10 11 -10 2 0 4 5 4 10 0 6 -5 10 -11 10 -5 0
-7 -4 -4 -10z"/>
<path d="M9810 9015 c0 -19 5 -35 10 -35 6 0 10 16 10 35 0 19 -4 35 -10 35
-5 0 -10 -16 -10 -35z"/>
<path d="M9923 9025 c-6 -14 -7 -25 -2 -25 5 0 9 5 9 11 0 6 6 9 14 6 10 -4
12 0 9 14 -7 26 -16 24 -30 -6z"/>
<path d="M9865 9010 c-3 -5 1 -10 10 -10 9 0 13 5 10 10 -3 6 -8 10 -10 10 -2
0 -7 -4 -10 -10z"/>
<path d="M9711 8903 c0 -25 1 -26 9 -8 12 27 12 35 0 35 -5 0 -10 -12 -9 -27z"/>
<path d="M9742 8890 c0 -19 2 -27 5 -17 2 9 2 25 0 35 -3 9 -5 1 -5 -18z"/>
<path d="M9746 8841 c-5 -8 -4 -16 4 -21 7 -4 10 -12 6 -18 -3 -6 -2 -13 3
-16 16 -11 20 8 7 39 -9 21 -14 26 -20 16z"/>
<path d="M9795 8840 c3 -5 8 -10 11 -10 2 0 4 5 4 10 0 6 -5 10 -11 10 -5 0
-7 -4 -4 -10z"/>
<path d="M9785 8770 c-3 -5 -1 -10 4 -10 6 0 11 5 11 10 0 6 -2 10 -4 10 -3 0
-8 -4 -11 -10z"/>
<path d="M9725 8720 c3 -5 13 -10 21 -10 8 0 14 5 14 10 0 6 -9 10 -21 10 -11
0 -17 -4 -14 -10z"/>
<path d="M9855 8680 c3 -5 8 -10 11 -10 2 0 4 5 4 10 0 6 -5 10 -11 10 -5 0
-7 -4 -4 -10z"/>
<path d="M9785 8640 c4 -6 11 -8 16 -5 14 9 11 15 -7 15 -8 0 -12 -5 -9 -10z"/>
<path d="M9865 8640 c-3 -5 -1 -10 4 -10 6 0 11 5 11 10 0 6 -2 10 -4 10 -3 0
-8 -4 -11 -10z"/>
<path d="M9682 8620 c0 -14 2 -19 5 -12 2 6 2 18 0 25 -3 6 -5 1 -5 -13z"/>
<path d="M9810 8596 c0 -8 -6 -16 -12 -19 -7 -2 -9 -8 -5 -13 4 -5 12 -2 18 6
8 13 10 13 18 0 6 -8 14 -11 18 -6 4 5 2 11 -4 13 -7 3 -13 11 -13 19 0 8 -4
14 -10 14 -5 0 -10 -6 -10 -14z"/>
<path d="M9950 8580 c0 -11 5 -20 10 -20 6 0 10 9 10 20 0 11 -4 20 -10 20 -5
0 -10 -9 -10 -20z"/>
<path d="M9720 8580 c0 -5 9 -10 20 -10 11 0 20 5 20 10 0 6 -9 10 -20 10 -11
0 -20 -4 -20 -10z"/>
<path d="M9890 8576 c0 -2 9 -6 20 -9 11 -3 20 -1 20 4 0 5 -9 9 -20 9 -11 0
-20 -2 -20 -4z"/>
<path d="M9550 8494 c0 -8 5 -12 10 -9 6 3 10 10 10 16 0 5 -4 9 -10 9 -5 0
-10 -7 -10 -16z"/>
<path d="M9710 8480 c0 -5 7 -10 15 -10 8 0 15 5 15 10 0 6 -7 10 -15 10 -8 0
-15 -4 -15 -10z"/>
<path d="M9710 8440 c0 -5 7 -10 15 -10 8 0 15 5 15 10 0 6 -7 10 -15 10 -8 0
-15 -4 -15 -10z"/>
<path d="M9490 8420 c0 -5 5 -10 10 -10 6 0 10 5 10 10 0 6 -4 10 -10 10 -5 0
-10 -4 -10 -10z"/>
<path d="M9610 8380 c0 -5 5 -10 10 -10 6 0 10 5 10 10 0 6 -4 10 -10 10 -5 0
-10 -4 -10 -10z"/>
<path d="M9510 8310 c-21 -7 -21 -8 -5 -9 11 0 27 4 35 9 18 11 5 11 -30 0z"/>
<path d="M9465 8210 c-3 -5 1 -10 10 -10 9 0 13 5 10 10 -3 6 -8 10 -10 10 -2
0 -7 -4 -10 -10z"/>
<path d="M9410 8200 c0 -5 5 -10 10 -10 6 0 10 5 10 10 0 6 -4 10 -10 10 -5 0
-10 -4 -10 -10z"/>
<path d="M9395 8160 c3 -5 8 -10 11 -10 2 0 4 5 4 10 0 6 -5 10 -11 10 -5 0
-7 -4 -4 -10z"/>
<path d="M9430 8159 c0 -5 5 -7 10 -4 6 3 10 8 10 11 0 2 -4 4 -10 4 -5 0 -10
-5 -10 -11z"/>
<path d="M8730 8140 c0 -5 5 -10 10 -10 6 0 10 5 10 10 0 6 -4 10 -10 10 -5 0
-10 -4 -10 -10z"/>
<path d="M3420 2640 c0 -5 5 -10 11 -10 5 0 7 5 4 10 -3 6 -8 10 -11 10 -2 0
-4 -4 -4 -10z"/>
<path d="M3550 2581 c0 -5 7 -11 14 -14 10 -4 13 -1 9 9 -6 15 -23 19 -23 5z"/>
<path d="M21 2334 c0 -11 3 -14 6 -6 3 7 2 16 -1 19 -3 4 -6 -2 -5 -13z"/>
<path d="M760 2240 c0 -5 5 -10 10 -10 6 0 10 5 10 10 0 6 -4 10 -10 10 -5 0
-10 -4 -10 -10z"/>
<path d="M798 2223 c6 -2 18 -2 25 0 6 3 1 5 -13 5 -14 0 -19 -2 -12 -5z"/>
<path d="M760 2200 c0 -5 9 -10 21 -10 11 0 17 5 14 10 -3 6 -13 10 -21 10 -8
0 -14 -4 -14 -10z"/>
<path d="M22 2180 c0 -14 2 -19 5 -12 2 6 2 18 0 25 -3 6 -5 1 -5 -13z"/>
<path d="M620 2170 c0 -5 5 -10 10 -10 6 0 10 5 10 10 0 6 -4 10 -10 10 -5 0
-10 -4 -10 -10z"/>
<path d="M730 2155 c0 -8 -4 -15 -10 -15 -5 0 -10 -7 -10 -15 0 -8 5 -15 10
-15 6 0 10 7 10 15 0 18 12 19 28 3 9 -9 12 -9 12 0 0 7 -4 12 -10 12 -5 0
-10 7 -10 15 0 8 -4 15 -10 15 -5 0 -10 -7 -10 -15z"/>
<path d="M770 2160 c0 -5 4 -10 9 -10 6 0 13 5 16 10 3 6 -1 10 -9 10 -9 0
-16 -4 -16 -10z"/>
<path d="M820 2141 c0 -14 5 -19 15 -14 17 6 15 25 -3 31 -7 2 -12 -5 -12 -17z"/>
<path d="M608 2103 c6 -2 18 -2 25 0 6 3 1 5 -13 5 -14 0 -19 -2 -12 -5z"/>
<path d="M740 2100 c0 -5 -7 -10 -16 -10 -8 0 -13 -4 -10 -9 4 -5 17 -4 31 2
28 13 33 27 10 27 -8 0 -15 -4 -15 -10z"/>
<path d="M830 2080 c0 -5 5 -10 10 -10 6 0 10 5 10 10 0 6 -4 10 -10 10 -5 0
-10 -4 -10 -10z"/>
<path d="M927 2063 c7 -2 9 -12 7 -21 -4 -10 -2 -13 3 -7 15 18 53 18 53 0 0
-9 5 -13 10 -10 15 10 12 23 -7 29 -23 6 -82 14 -66 9z"/>
<path d="M2173 2063 c9 -2 25 -2 35 0 9 3 1 5 -18 5 -19 0 -27 -2 -17 -5z"/>
<path d="M330 2045 c0 -8 5 -15 10 -15 6 0 10 7 10 15 0 8 -4 15 -10 15 -5 0
-10 -7 -10 -15z"/>
<path d="M850 2045 c-7 -9 -8 -15 -2 -15 5 0 12 7 16 15 3 8 4 15 2 15 -2 0
-9 -7 -16 -15z"/>
<path d="M1978 2053 c7 -3 16 -2 19 1 4 3 -2 6 -13 5 -11 0 -14 -3 -6 -6z"/>
<path d="M2120 2022 c0 -8 -9 -16 -19 -19 -12 -3 -23 -17 -26 -34 -7 -31 -25
-40 -25 -12 0 14 -3 14 -12 5 -10 -10 -10 -15 -1 -20 18 -11 4 -52 -18 -52
-11 0 -19 5 -19 10 0 6 8 10 17 10 9 0 14 2 11 5 -3 3 -19 2 -37 -1 -28 -6
-32 -10 -27 -30 6 -21 3 -24 -19 -24 -30 0 -32 -11 -5 -30 14 -10 20 -26 20
-51 0 -50 11 -99 21 -99 5 0 9 8 9 18 1 16 1 16 14 0 7 -10 18 -18 25 -18 6 0
11 -9 11 -20 0 -17 -7 -20 -40 -20 l-40 0 0 40 c0 22 -4 40 -10 40 -5 0 -10
-9 -10 -19 0 -11 -4 -22 -10 -26 -12 -8 -1 -35 15 -35 12 0 30 -59 20 -68 -3
-3 -5 2 -5 11 0 24 -27 21 -35 -3 -4 -11 -15 -20 -27 -20 -18 0 -19 4 -13 40
6 38 6 40 -19 40 -19 0 -26 5 -26 20 0 14 7 20 21 20 13 0 18 4 13 12 -5 8 -2
9 9 5 9 -3 19 -2 22 4 4 5 3 9 -2 8 -26 -5 -42 4 -45 24 -2 12 -9 23 -15 23
-7 1 -20 2 -28 3 -8 0 -15 10 -15 21 0 13 -7 20 -20 20 -13 0 -20 -7 -20 -20
0 -24 -6 -25 -26 -6 -19 19 -18 26 5 26 13 0 20 9 25 30 6 31 26 42 26 15 0
-8 9 -15 19 -15 29 0 35 17 9 26 -13 4 -26 12 -30 18 -5 7 -13 3 -24 -12 -11
-15 -23 -22 -35 -19 -11 3 -22 1 -25 -4 -3 -5 -11 -9 -19 -9 -11 0 -12 7 -4
32 12 42 11 58 -1 58 -5 0 -10 -9 -10 -21 0 -30 -24 -18 -28 14 -3 24 -7 27
-43 27 -43 0 -56 -25 -16 -33 12 -2 -27 -5 -86 -6 -89 -1 -115 2 -149 19 -50
24 -54 25 -38 5 10 -12 7 -15 -16 -21 -15 -4 -40 -2 -55 3 -40 15 -51 -1 -37
-54 7 -29 7 -47 -1 -60 -9 -15 -10 -12 -11 20 0 20 -4 37 -10 37 -5 0 -10 -13
-10 -29 0 -42 -9 -61 -30 -61 -15 0 -19 10 -22 50 -1 28 2 52 7 55 6 3 0 2
-12 -1 -24 -6 -32 11 -10 19 8 4 9 6 0 6 -6 1 -19 -6 -28 -16 -13 -13 -19 -13
-25 -4 -5 9 -10 10 -14 2 -4 -6 -2 -11 3 -11 6 0 11 -6 11 -14 0 -10 -11 -12
-45 -8 -41 4 -45 3 -45 -17 0 -13 -6 -21 -16 -21 -10 0 -14 -5 -10 -16 3 -8 2
-12 -4 -9 -6 3 -10 1 -10 -4 0 -6 -9 -11 -20 -11 -13 0 -20 -7 -20 -20 0 -11
-7 -20 -15 -20 -8 0 -15 5 -15 10 0 6 -10 9 -22 9 -17 -1 -19 -2 -6 -6 10 -2
18 -9 18 -14 0 -13 -18 -11 -27 4 -15 24 -11 34 13 29 30 -5 30 6 3 40 -18 22
-25 25 -40 15 -26 -16 -30 -7 -23 46 8 54 21 61 27 15 3 -28 4 -26 5 11 2 40
4 43 25 37 12 -3 25 -6 30 -6 14 0 7 -20 -8 -20 -8 0 -15 -4 -15 -9 0 -5 7
-11 15 -15 9 -3 15 0 15 9 0 9 10 15 23 15 21 1 21 1 3 12 -11 6 -29 21 -41
34 -33 36 -57 34 -67 -3 -5 -18 -13 -33 -18 -33 -6 0 -10 -12 -10 -28 0 -33
-37 -63 -46 -37 -5 12 -9 13 -21 4 -12 -11 -12 -14 0 -21 20 -11 -1 -58 -25
-58 -14 0 -18 9 -19 43 -1 34 -2 37 -8 17 -10 -35 -35 -32 -41 5 -4 24 -7 26
-12 13 -5 -12 -19 -18 -40 -19 -24 -1 -27 -3 -11 -6 26 -5 31 -23 8 -23 -8 0
-15 -7 -15 -15 0 -9 -9 -15 -22 -15 -19 0 -20 2 -8 10 11 7 7 10 -17 10 -22 0
-33 -5 -36 -17 -5 -21 -11 -9 -21 40 -8 35 -17 34 -37 -6 -13 -26 -21 -31 -42
-29 -36 4 -35 -15 1 -21 15 -2 7 -3 -18 -2 -25 1 -39 0 -32 -2 6 -3 9 -10 6
-15 -4 -7 -2 -8 4 -4 7 4 20 2 29 -3 10 -6 12 -11 6 -11 -9 0 -13 -18 -13 -56
0 -38 -3 -53 -11 -48 -6 3 -14 1 -18 -5 -12 -19 -41 -1 -41 26 0 13 -7 31 -15
39 -12 13 -17 12 -35 -3 -23 -20 -27 -38 -5 -29 11 4 15 -2 15 -22 -1 -30 1
-32 -60 46 -14 18 -33 32 -42 32 -11 0 -15 5 -12 15 4 10 0 15 -16 15 -17 0
-20 4 -15 20 5 15 2 20 -10 20 -14 0 -16 7 -10 40 4 26 3 40 -4 40 -6 0 -11 9
-11 20 0 11 5 20 11 20 15 0 3 66 -17 94 -13 19 -14 17 -14 -26 0 -28 5 -48
13 -51 9 -4 9 -7 0 -14 -9 -7 -12 -211 -13 -883 0 -481 -1 -903 0 -937 l0 -63
1855 0 c1848 0 1855 0 1855 20 0 13 -7 20 -20 20 -11 0 -20 6 -20 14 0 8 -10
17 -22 19 -22 4 -22 4 -2 6 34 2 35 26 3 57 -36 35 -39 57 -3 23 15 -13 25
-19 22 -14 -2 6 -13 29 -23 53 -10 23 -22 42 -27 42 -4 0 -8 7 -8 15 0 8 -8
23 -19 34 -10 10 -21 41 -25 70 -6 46 -9 51 -22 40 -13 -10 -17 -10 -25 2 -14
23 -11 39 9 33 16 -5 16 -5 0 9 -21 17 -23 33 -5 40 6 3 -3 8 -20 12 -18 4
-33 11 -33 16 0 5 3 8 8 8 18 -3 32 2 32 11 0 16 -40 12 -46 -4 -10 -26 -32
-6 -39 35 -4 21 -11 39 -16 39 -5 0 -9 11 -9 24 0 13 -6 27 -12 30 -7 3 1 4
17 1 l30 -4 -30 14 c-16 8 -36 14 -42 15 -15 0 -18 30 -3 30 6 0 10 5 10 10 0
6 -18 10 -40 10 -22 0 -40 5 -40 10 0 6 5 10 10 10 6 0 10 5 10 10 0 6 -12 10
-26 10 -14 0 -32 6 -40 14 -17 18 -19 92 -1 100 15 7 -72 2 -93 -6 -8 -2 -12
-3 -7 -1 16 10 7 43 -13 43 -17 0 -20 7 -22 43 -1 36 -2 38 -5 10 -6 -49 -20
-40 -27 17 -5 41 -10 50 -26 50 -18 0 -20 7 -20 80 0 73 -2 80 -20 80 -16 0
-20 7 -20 35 0 21 -5 35 -12 35 -8 1 -6 6 4 14 29 21 8 27 -22 6 -48 -34 -130
-21 -130 21 0 10 -3 10 -12 1 -9 -9 -9 -15 0 -24 17 -17 15 -45 -5 -58 -15 -9
-14 -10 7 -6 14 3 19 3 12 0 -6 -3 -10 -10 -7 -15 4 -5 -1 -6 -9 -3 -9 3 -16
1 -16 -5 0 -6 -7 -11 -15 -11 -8 0 -15 5 -15 10 0 6 6 10 14 10 10 0 13 9 11
31 -4 31 -15 53 -15 31 0 -7 -7 -12 -15 -12 -8 0 -15 -4 -15 -10 0 -5 5 -10
11 -10 5 0 7 -5 3 -11 -4 -8 -9 -8 -17 0 -22 22 -37 12 -37 -24 0 -24 5 -35
15 -35 8 0 15 -4 15 -10 0 -15 -29 -12 -46 5 -9 8 -12 15 -8 15 10 0 -28 29
-38 30 -4 0 -6 -21 -3 -47 2 -27 2 -39 -1 -28 -3 11 -8 27 -11 35 -4 8 -5 55
-4 103 l3 89 -28 -4 c-26 -3 -29 0 -27 22 6 69 15 90 39 90 23 0 33 -14 17
-23 -5 -2 -2 -2 5 -1 6 2 12 -1 12 -7 0 -6 7 -3 16 5 14 15 14 17 0 32 -10 10
-16 11 -16 3 0 -9 -3 -9 -14 0 -9 8 -28 10 -50 5 -29 -5 -36 -3 -36 10 0 9 -4
16 -10 16 -16 0 -12 27 6 34 8 3 12 11 9 16 -4 7 -17 1 -32 -15 -14 -14 -35
-25 -47 -24 -11 0 -15 3 -8 6 17 6 15 43 -2 43 -7 0 -16 -9 -19 -20 -9 -36
-30 -23 -23 14 6 29 3 34 -16 39 -12 4 -26 1 -31 -6 -7 -9 -10 -9 -14 1 -5 14
-33 17 -33 3 0 -5 6 -12 13 -14 7 -4 6 -6 -4 -6 -9 -1 -16 -7 -15 -13 0 -7 -3
-13 -9 -13 -9 0 -11 4 -14 32 -1 7 -13 10 -28 9 -20 -2 -31 3 -38 18 -13 25
-7 75 6 54 6 -8 12 -10 17 -3 4 6 20 12 36 13 43 3 45 12 3 12 -20 0 -37 5
-37 10 0 6 20 10 45 10 25 0 45 5 45 10 0 5 -3 9 -7 9 -5 -1 -19 0 -33 1 -17
2 -10 5 20 10 l45 7 -42 1 -43 2 0 45 c0 25 5 45 10 45 6 0 10 9 10 20 0 11
-4 20 -10 20 -5 0 -10 28 -12 63 -3 56 -4 60 -15 37 -8 -17 -12 -20 -12 -8 -1
9 -3 23 -6 30 -4 9 4 19 17 26 20 10 21 11 3 9 -11 -1 -35 -12 -52 -25 l-33
-23 0 25 c0 23 -4 25 -40 23 -27 -1 -40 -6 -40 -15z m40 -42 c0 -5 -9 -10 -20
-10 -11 0 -20 5 -20 10 0 6 9 10 20 10 11 0 20 -4 20 -10z m90 0 c0 -5 -4 -10
-10 -10 -5 0 -10 5 -10 10 0 6 5 10 10 10 6 0 10 -4 10 -10z m-20 -41 c0 -5
-4 -9 -10 -9 -5 0 -10 7 -10 16 0 8 5 12 10 9 6 -3 10 -10 10 -16z m47 -51
c-3 -7 -5 -2 -5 12 0 14 2 19 5 13 2 -7 2 -19 0 -25z m-44 15 c-7 -2 -21 -2
-30 0 -10 3 -4 5 12 5 17 0 24 -2 18 -5z m-606 -50 c-3 -10 -5 -2 -5 17 0 19
2 27 5 18 2 -10 2 -26 0 -35z m-297 27 c0 -5 -5 -10 -11 -10 -5 0 -7 5 -4 10
3 6 8 10 11 10 2 0 4 -4 4 -10z m160 -6 c0 -8 -5 -12 -10 -9 -6 4 -8 11 -5 16
9 14 15 11 15 -7z m-32 -25 c-3 -8 -7 -3 -11 10 -4 17 -3 21 5 13 5 -5 8 -16
6 -23z m139 -1 c-3 -7 -5 -2 -5 12 0 14 2 19 5 13 2 -7 2 -19 0 -25z m-297 7
c20 -24 6 -28 -15 -5 -10 11 -13 20 -8 20 6 0 16 -7 23 -15z m-200 -5 c8 -5
12 -12 9 -15 -8 -8 -39 5 -39 16 0 11 11 11 30 -1z m160 -35 c0 -16 6 -25 15
-25 8 0 15 -4 15 -10 0 -5 -7 -10 -15 -10 -8 0 -15 5 -15 10 0 6 -7 10 -15 10
-9 0 -15 9 -15 25 0 16 6 25 15 25 9 0 15 -9 15 -25z m470 5 c0 -5 -6 -10 -14
-10 -8 0 -16 -6 -19 -12 -4 -10 -7 -10 -18 0 -11 10 -10 12 4 12 9 0 17 5 17
10 0 6 7 10 15 10 8 0 15 -4 15 -10z m297 -6 c-3 -3 -12 -4 -19 -1 -8 3 -5 6
6 6 11 1 17 -2 13 -5z m-983 -25 c-3 -5 -19 -9 -35 -9 -18 0 -28 -4 -24 -10 4
-6 11 -8 16 -5 5 4 9 -1 9 -9 0 -8 -4 -18 -10 -21 -5 -3 -10 1 -10 10 0 8 -10
20 -22 25 -18 7 -19 9 -5 9 9 1 17 5 17 10 0 11 38 19 57 13 7 -2 10 -8 7 -13z
m-644 -25 c0 -8 -5 -12 -10 -9 -6 4 -8 11 -5 16 9 14 15 11 15 -7z m642 -16
c-7 -7 -12 -8 -12 -2 0 14 12 26 19 19 2 -3 -1 -11 -7 -17z m208 6 c0 -10 5
-14 16 -10 19 7 8 -14 -18 -32 -13 -9 -16 -21 -11 -42 4 -23 2 -30 -11 -30 -9
0 -16 8 -16 19 0 11 -4 22 -10 26 -17 10 1 35 26 35 24 0 32 14 14 25 -5 3
-10 10 -10 16 0 5 5 9 10 9 6 0 10 -7 10 -16z m-290 -14 c0 -5 -9 -10 -20 -10
-11 0 -20 5 -20 10 0 6 9 10 20 10 11 0 20 -4 20 -10z m179 -6 c2 -2 -14 -4
-37 -4 -23 0 -42 4 -42 9 0 9 69 4 79 -5z m1101 6 c0 -5 -4 -10 -10 -10 -5 0
-10 5 -10 10 0 6 5 10 10 10 6 0 10 -4 10 -10z m-1110 -39 c0 -5 -7 -11 -14
-14 -10 -4 -13 -1 -9 9 6 15 23 19 23 5z m1047 -23 c-3 -8 -6 -5 -6 6 -1 11 2
17 5 13 3 -3 4 -12 1 -19z m-1005 -18 c3 -19 1 -29 -6 -27 -14 4 -21 57 -8 57
5 0 12 -14 14 -30z m98 20 c0 -5 -4 -10 -10 -10 -5 0 -10 5 -10 10 0 6 5 10
10 10 6 0 10 -4 10 -10z m-580 -15 c0 -8 -4 -15 -10 -15 -5 0 -10 7 -10 15 0
8 5 15 10 15 6 0 10 -7 10 -15z m37 -17 c-3 -7 -5 -2 -5 12 0 14 2 19 5 13 2
-7 2 -19 0 -25z m-591 8 c8 -8 14 -24 14 -36 0 -12 4 -18 11 -15 6 4 16 -1 23
-11 20 -27 39 -8 33 32 -3 19 -2 34 3 34 13 0 24 -46 16 -65 -3 -8 0 -15 7
-16 9 0 9 -2 0 -6 -7 -2 -13 -16 -13 -30 0 -33 -31 -28 -41 7 -7 24 -7 24 -9
-5 -2 -24 -4 -26 -7 -7 -5 25 -23 30 -23 7 0 -8 -7 -15 -15 -15 -8 0 -15 7
-15 15 0 8 -9 15 -20 15 -13 0 -20 7 -20 20 0 11 7 20 15 20 8 0 15 -4 15 -10
0 -5 5 -10 10 -10 6 0 10 16 10 35 0 23 -5 35 -12 34 -7 -1 -20 -1 -28 0 -13
1 -13 2 0 11 20 13 29 12 46 -4z m721 8 c-3 -3 -12 -4 -19 -1 -8 3 -5 6 6 6
11 1 17 -2 13 -5z m-482 -14 c3 -5 -1 -10 -10 -10 -9 0 -13 5 -10 10 3 6 8 10
10 10 2 0 7 -4 10 -10z m1709 -45 c8 -42 26 -56 26 -21 0 27 19 33 68 20 29
-8 32 -54 2 -54 -15 0 -20 7 -20 25 0 30 -22 30 -30 0 -4 -13 -16 -21 -33 -23
-23 -3 -27 0 -27 22 0 16 -6 26 -15 26 -8 0 -15 9 -15 20 0 13 7 20 19 20 14
0 21 -10 25 -35z m-824 -21 c0 -19 -4 -33 -8 -30 -8 5 -4 66 4 66 2 0 4 -16 4
-36z m-34 -1 c-10 -10 -19 5 -10 18 6 11 8 11 12 0 2 -7 1 -15 -2 -18z m139
17 c4 -6 -9 -10 -32 -10 -28 0 -34 3 -23 10 20 13 47 13 55 0z m455 -4 c0 -3
-4 -8 -10 -11 -5 -3 -10 -1 -10 4 0 6 5 11 10 11 6 0 10 -2 10 -4z m25 -26 c3
-5 -1 -10 -10 -10 -9 0 -13 5 -10 10 3 6 8 10 10 10 2 0 7 -4 10 -10z m572
-37 c-3 -10 -5 -2 -5 17 0 19 2 27 5 18 2 -10 2 -26 0 -35z m-2107 27 c0 -5
-4 -10 -10 -10 -5 0 -10 5 -10 10 0 6 5 10 10 10 6 0 10 -4 10 -10z m1033 3
c-7 -2 -13 -13 -13 -24 0 -28 -17 -23 -22 6 -5 22 -2 25 21 24 14 0 20 -3 14
-6z m694 -28 c-12 -25 -27 -34 -27 -15 0 6 -16 10 -35 10 -19 0 -35 5 -35 11
0 8 14 10 45 6 27 -4 45 -3 45 3 0 6 4 10 9 10 5 0 4 -11 -2 -25z m86 -2 c-7
-2 -21 -2 -30 0 -10 3 -4 5 12 5 17 0 24 -2 18 -5z m75 0 c-10 -2 -28 -2 -40
0 -13 2 -5 4 17 4 22 1 32 -1 23 -4z m-83 -23 c3 -5 1 -10 -4 -10 -6 0 -11 5
-11 10 0 6 2 10 4 10 3 0 8 -4 11 -10z m-171 -16 c3 -8 2 -12 -4 -9 -6 3 -10
10 -10 16 0 14 7 11 14 -7z m276 1 c20 -24 6 -28 -15 -5 -10 11 -13 20 -8 20
6 0 16 -7 23 -15z m120 5 c0 -5 -7 -10 -15 -10 -8 0 -15 5 -15 10 0 6 7 10 15
10 8 0 15 -4 15 -10z m-667 -7 c-7 -2 -19 -2 -25 0 -7 3 -2 5 12 5 14 0 19 -2
13 -5z m314 -19 c-3 -3 -12 -4 -19 -1 -8 3 -5 6 6 6 11 1 17 -2 13 -5z m536
-21 c-7 -2 -21 -2 -30 0 -10 3 -4 5 12 5 17 0 24 -2 18 -5z m-53 -53 c0 -5 -4
-10 -10 -10 -5 0 -10 5 -10 10 0 6 5 10 10 10 6 0 10 -4 10 -10z m480 -235 c0
-8 -4 -15 -10 -15 -5 0 -10 7 -10 15 0 8 5 15 10 15 6 0 10 -7 10 -15z m-244
-42 c-8 -9 -37 18 -30 28 3 5 12 2 21 -6 8 -9 13 -19 9 -22z m369 -133 c-3 -5
-13 -6 -21 -3 -12 4 -13 8 -3 14 15 9 32 2 24 -11z m-85 -10 c-8 -5 -19 -10
-25 -10 -5 0 -3 5 5 10 8 5 20 10 25 10 6 0 3 -5 -5 -10z m330 -280 c0 -5 -9
-10 -20 -10 -11 0 -20 5 -20 10 0 6 9 10 20 10 11 0 20 -4 20 -10z m80 -120
c0 -5 -4 -10 -10 -10 -5 0 -10 5 -10 10 0 6 5 10 10 10 6 0 10 -4 10 -10z"/>
<path d="M205 1569 c-11 -16 -1 -19 13 -3 7 8 8 14 3 14 -5 0 -13 -5 -16 -11z"/>
<path d="M1701 2014 c0 -11 3 -14 6 -6 3 7 2 16 -1 19 -3 4 -6 -2 -5 -13z"/>
<path d="M1198 2015 c-12 -13 6 -51 29 -62 21 -10 28 -9 42 4 15 15 14 16 -6
11 -18 -5 -23 -2 -23 13 0 10 6 19 13 19 18 0 -14 20 -34 20 -9 0 -18 -2 -21
-5z"/>
<path d="M316 2001 c-4 -7 -5 -15 -2 -18 9 -9 19 4 14 18 -4 11 -6 11 -12 0z"/>
<path d="M360 2001 c0 -5 9 -7 20 -4 11 3 20 7 20 9 0 2 -9 4 -20 4 -11 0 -20
-4 -20 -9z"/>
<path d="M840 2000 c0 -5 9 -10 20 -10 11 0 20 5 20 10 0 6 -9 10 -20 10 -11
0 -20 -4 -20 -10z"/>
<path d="M2650 1980 c0 -5 5 -10 10 -10 6 0 10 5 10 10 0 6 -4 10 -10 10 -5 0
-10 -4 -10 -10z"/>
<path d="M346 1964 c-5 -14 -4 -15 9 -4 17 14 19 20 6 20 -5 0 -12 -7 -15 -16z"/>
<path d="M865 1950 c4 -6 11 -8 16 -5 14 9 11 15 -7 15 -8 0 -12 -5 -9 -10z"/>
<path d="M960 1940 c0 -5 9 -10 20 -10 11 0 20 5 20 10 0 6 -9 10 -20 10 -11
0 -20 -4 -20 -10z"/>
<path d="M1531 1934 c0 -11 3 -14 6 -6 3 7 2 16 -1 19 -3 4 -6 -2 -5 -13z"/>
<path d="M1010 1922 c0 -5 7 -9 15 -9 8 0 15 4 15 9 0 4 -7 8 -15 8 -8 0 -15
-4 -15 -8z"/>
<path d="M1175 1911 c-3 -12 -11 -21 -16 -21 -5 0 -9 -4 -9 -10 0 -5 4 -10 8
-10 10 0 35 50 28 57 -2 2 -7 -5 -11 -16z"/>
<path d="M710 1900 c0 -11 5 -20 10 -20 6 0 10 9 10 20 0 11 -4 20 -10 20 -5
0 -10 -9 -10 -20z"/>
<path d="M1717 1906 c-4 -10 -5 -21 -2 -24 9 -9 17 6 13 25 -3 17 -4 17 -11
-1z"/>
<path d="M2450 1906 c0 -2 8 -10 18 -17 15 -13 16 -12 3 4 -13 16 -21 21 -21
13z"/>
<path d="M2602 1894 c-7 -8 -8 -15 -2 -19 6 -3 10 0 10 7 0 10 3 9 10 -2 5 -8
12 -11 16 -8 3 4 0 13 -8 21 -11 11 -16 12 -26 1z"/>
<path d="M576 1885 c4 -8 8 -15 10 -15 2 0 4 7 4 15 0 8 -4 15 -10 15 -5 0 -7
-7 -4 -15z"/>
<path d="M1008 1893 c12 -2 30 -2 40 0 9 3 -1 5 -23 4 -22 0 -30 -2 -17 -4z"/>
<path d="M370 1860 c0 -5 7 -10 15 -10 8 0 15 5 15 10 0 6 -7 10 -15 10 -8 0
-15 -4 -15 -10z"/>
<path d="M550 1860 c0 -5 -17 -10 -37 -11 -38 -1 -38 -1 -9 -9 18 -6 36 -5 48
1 19 10 25 29 8 29 -5 0 -10 -4 -10 -10z"/>
<path d="M300 1850 c0 -5 5 -10 11 -10 5 0 7 5 4 10 -3 6 -8 10 -11 10 -2 0
-4 -4 -4 -10z"/>
<path d="M1850 1840 c0 -5 5 -10 10 -10 6 0 10 5 10 10 0 6 -4 10 -10 10 -5 0
-10 -4 -10 -10z"/>
<path d="M2370 1825 c0 -14 5 -25 10 -25 6 0 10 11 10 25 0 14 -4 25 -10 25
-5 0 -10 -11 -10 -25z"/>
<path d="M825 1830 c3 -5 8 -10 11 -10 2 0 4 5 4 10 0 6 -5 10 -11 10 -5 0 -7
-4 -4 -10z"/>
<path d="M1890 1835 c0 -5 5 -17 10 -25 5 -8 10 -10 10 -5 0 6 -5 17 -10 25
-5 8 -10 11 -10 5z"/>
<path d="M2320 1820 c0 -13 5 -18 15 -14 8 4 15 12 15 20 0 8 -7 14 -15 14 -8
0 -15 -9 -15 -20z"/>
<path d="M355 1820 c3 -5 8 -10 11 -10 2 0 4 5 4 10 0 6 -5 10 -11 10 -5 0 -7
-4 -4 -10z"/>
<path d="M440 1800 c0 -5 9 -10 20 -10 11 0 20 5 20 10 0 6 -9 10 -20 10 -11
0 -20 -4 -20 -10z"/>
<path d="M1832 1799 c2 -7 10 -15 17 -17 8 -3 12 1 9 9 -2 7 -10 15 -17 17 -8
3 -12 -1 -9 -9z"/>
<path d="M1888 1783 c-10 -2 -18 -9 -18 -14 0 -6 7 -6 18 -1 9 5 24 12 32 15
13 5 13 5 0 5 -8 0 -23 -2 -32 -5z"/>
<path d="M2340 1780 c0 -5 5 -10 10 -10 6 0 10 5 10 10 0 6 -4 10 -10 10 -5 0
-10 -4 -10 -10z"/>
<path d="M2578 1783 c7 -3 16 -2 19 1 4 3 -2 6 -13 5 -11 0 -14 -3 -6 -6z"/>
<path d="M2392 1740 c0 -14 2 -19 5 -12 2 6 2 18 0 25 -3 6 -5 1 -5 -13z"/>
<path d="M2618 1743 c7 -3 16 -2 19 1 4 3 -2 6 -13 5 -11 0 -14 -3 -6 -6z"/>
<path d="M191 1713 c-9 -16 -12 -16 -20 -3 -6 8 -14 11 -18 6 -4 -5 -2 -11 5
-13 6 -3 12 -11 12 -19 0 -24 15 -15 27 16 13 33 10 39 -6 13z"/>
<path d="M2616 1715 c-9 -26 -7 -32 5 -12 6 10 9 21 6 23 -2 3 -7 -2 -11 -11z"/>
<path d="M2270 1635 c0 -8 5 -15 10 -15 6 0 10 7 10 15 0 8 -4 15 -10 15 -5 0
-10 -7 -10 -15z"/>
<path d="M2390 1639 c0 -6 -9 -8 -22 -3 -21 6 -21 6 -4 -11 15 -15 19 -16 27
-4 10 16 12 29 4 29 -3 0 -5 -5 -5 -11z"/>
<path d="M2622 1580 c0 -14 2 -19 5 -12 2 6 2 18 0 25 -3 6 -5 1 -5 -13z"/>
<path d="M2770 1535 c0 -8 5 -15 10 -15 6 0 10 7 10 15 0 8 -4 15 -10 15 -5 0
-10 -7 -10 -15z"/>
<path d="M2600 1520 c0 -5 9 -10 20 -10 11 0 20 5 20 10 0 6 -9 10 -20 10 -11
0 -20 -4 -20 -10z"/>
<path d="M2930 1380 c0 -5 5 -10 10 -10 6 0 10 5 10 10 0 6 -4 10 -10 10 -5 0
-10 -4 -10 -10z"/>
<path d="M2890 1340 c0 -5 5 -10 10 -10 6 0 10 5 10 10 0 6 -4 10 -10 10 -5 0
-10 -4 -10 -10z"/>
<path d="M2860 1300 c0 -5 7 -10 15 -10 8 0 15 5 15 10 0 6 -7 10 -15 10 -8 0
-15 -4 -15 -10z"/>
<path d="M3295 804 l-30 -14 34 3 c19 1 36 8 39 15 5 15 -5 14 -43 -4z"/>
<path d="M3845 710 c3 -5 8 -10 11 -10 2 0 4 5 4 10 0 6 -5 10 -11 10 -5 0 -7
-4 -4 -10z"/>
</g>
</svg>
